<?xml version="1.0" encoding="utf-8"?>
<!-- Generator: Adobe Illustrator 16.0.0, SVG Export Plug-In . SVG Version: 6.00 Build 0)  -->
<!DOCTYPE svg PUBLIC "-//W3C//DTD SVG 1.1//EN" "http://www.w3.org/Graphics/SVG/1.1/DTD/svg11.dtd">
<svg version="1.1" id="图层_1" xmlns="http://www.w3.org/2000/svg" xmlns:xlink="http://www.w3.org/1999/xlink" x="0px" y="0px"
	 width="50px" height="50px" viewBox="0 0 50 50" enable-background="new 0 0 50 50" xml:space="preserve">
<path fill="#FF5757" d="M48.5,10.5v-6c0-1.53,0.105-1-1.428-1H5.521c-1.53,0-4.021-0.53-4.021,1v6H48.5z"/>
<path fill="#FFFFFF" d="M12.5,5.919c0,0.873-0.708,1.581-1.581,1.581h-0.838C9.208,7.5,8.5,6.792,8.5,5.919V3.081
	C8.5,2.208,9.208,1.5,10.081,1.5h0.838c0.873,0,1.581,0.708,1.581,1.581V5.919z"/>
<path fill="#FFFFFF" d="M42.5,5.919c0,0.873-0.708,1.581-1.581,1.581h-0.838c-0.873,0-1.581-0.708-1.581-1.581V3.081
	c0-0.873,0.708-1.581,1.581-1.581h0.838c0.873,0,1.581,0.708,1.581,1.581V5.919z"/>
<path fill="#FFFFFF" d="M45.729,47.5H3.701c-0.992,0-1.2-0.975-1.2-1.792V11.5h45v34.208C47.501,46.695,46.707,47.5,45.729,47.5z"/>
<path fill="#FF0000" d="M45.729,2.5h-2.3c-0.266-1.143-1.287-2-2.51-2h-0.838c-1.223,0-2.244,0.857-2.51,2H13.428
	c-0.265-1.143-1.287-2-2.509-2h-0.838c-1.222,0-2.244,0.857-2.509,2H3.7c-2.094,0-3.2,1.089-3.2,3.149v40.059
	c0,2.304,1.256,3.792,3.2,3.792h42.028c2.08,0,3.771-1.701,3.771-3.792V5.649C49.5,3.707,48.055,2.5,45.729,2.5z M39.5,4.5V3.081
	c0-0.32,0.262-0.581,0.581-0.581h0.838c0.319,0,0.581,0.261,0.581,0.581V4.5v1.419c0,0.32-0.262,0.581-0.581,0.581h-0.838
	c-0.319,0-0.581-0.261-0.581-0.581V4.5z M9.5,4.5V3.081c0-0.32,0.261-0.581,0.581-0.581h0.838c0.32,0,0.581,0.261,0.581,0.581V4.5
	v1.419c0,0.32-0.261,0.581-0.581,0.581h-0.838C9.761,6.5,9.5,6.239,9.5,5.919V4.5z M2.5,5.649C2.5,4.745,2.65,4.5,3.7,4.5h3.8v1.419
	C7.5,7.342,8.658,8.5,10.081,8.5h0.838c1.423,0,2.581-1.158,2.581-2.581V4.5h24v1.419c0,1.423,1.158,2.581,2.581,2.581h0.838
	c1.423,0,2.581-1.158,2.581-2.581V4.5h2.229C47.5,4.5,47.5,5.365,47.5,5.649v3.948h-45V5.649z M45.729,47.5H3.7
	c-0.992,0-1.2-0.975-1.2-1.792V11.5h45v34.208C47.5,46.695,46.706,47.5,45.729,47.5z"/>
<g>
	<path fill="#FFD4D4" d="M11.5,20.115c0,0.765-0.621,1.385-1.386,1.385H8.886c-0.765,0-1.386-0.62-1.386-1.385v-1.229
		c0-0.765,0.621-1.385,1.386-1.385h1.229c0.765,0,1.386,0.62,1.386,1.385L11.5,20.115L11.5,20.115z"/>
	<path fill="#FF4747" d="M10.114,22.5H8.886C7.57,22.5,6.5,21.43,6.5,20.115v-1.229c0-1.315,1.07-2.385,2.386-2.385h1.229
		c1.315,0,2.386,1.07,2.386,2.385v1.229C12.5,21.43,11.43,22.5,10.114,22.5z M8.886,18.5c-0.213,0-0.386,0.173-0.386,0.385v1.229
		c0,0.212,0.173,0.385,0.386,0.385h1.229c0.213,0,0.386-0.173,0.386-0.385v-1.229c0-0.212-0.173-0.385-0.386-0.385H8.886z"/>
</g>
<g>
	<path fill="#FFD4D4" d="M11.5,30.113c0,0.766-0.621,1.387-1.386,1.387H8.886c-0.765,0-1.386-0.621-1.386-1.387v-1.227
		c0-0.767,0.621-1.388,1.386-1.388h1.229c0.765,0,1.386,0.621,1.386,1.388L11.5,30.113L11.5,30.113z"/>
	<path fill="#FF4747" d="M10.114,32.5H8.886C7.57,32.5,6.5,31.43,6.5,30.113v-1.227c0-1.316,1.07-2.388,2.386-2.388h1.229
		c1.315,0,2.386,1.069,2.386,2.388v1.227C12.5,31.43,11.43,32.5,10.114,32.5z M8.886,28.5c-0.213,0-0.386,0.174-0.386,0.387v1.227
		c0,0.214,0.173,0.388,0.386,0.388h1.229c0.213,0,0.386-0.174,0.386-0.388v-1.227c0-0.213-0.173-0.387-0.386-0.387H8.886z"/>
</g>
<g>
	<path fill="#FFD4D4" d="M21.5,20.115c0,0.765-0.621,1.385-1.386,1.385h-1.229c-0.765,0-1.386-0.62-1.386-1.385v-1.229
		c0-0.765,0.621-1.385,1.386-1.385h1.229c0.765,0,1.386,0.62,1.386,1.385V20.115z"/>
	<path fill="#FF4747" d="M20.114,22.5h-1.229c-1.315,0-2.386-1.07-2.386-2.385v-1.229c0-1.315,1.07-2.385,2.386-2.385h1.229
		c1.315,0,2.386,1.07,2.386,2.385v1.229C22.5,21.43,21.43,22.5,20.114,22.5z M18.886,18.5c-0.213,0-0.386,0.173-0.386,0.385v1.229
		c0,0.212,0.173,0.385,0.386,0.385h1.229c0.213,0,0.386-0.173,0.386-0.385v-1.229c0-0.212-0.173-0.385-0.386-0.385H18.886z"/>
</g>
<g>
	<path fill="#FFD4D4" d="M21.5,30.113c0,0.766-0.621,1.387-1.386,1.387h-1.229c-0.765,0-1.386-0.621-1.386-1.387v-1.227
		c0-0.767,0.621-1.388,1.386-1.388h1.229c0.765,0,1.386,0.621,1.386,1.388V30.113z"/>
	<path fill="#FF4747" d="M20.114,32.5h-1.229c-1.315,0-2.386-1.07-2.386-2.387v-1.227c0-1.316,1.07-2.388,2.386-2.388h1.229
		c1.315,0,2.386,1.069,2.386,2.388v1.227C22.5,31.43,21.43,32.5,20.114,32.5z M18.886,28.5c-0.213,0-0.386,0.174-0.386,0.387v1.227
		c0,0.214,0.173,0.388,0.386,0.388h1.229c0.213,0,0.386-0.174,0.386-0.388v-1.227c0-0.213-0.173-0.387-0.386-0.387H18.886z"/>
</g>
<g>
	<path fill="#FFD4D4" d="M32.5,20.115c0,0.765-0.621,1.385-1.387,1.385h-1.229c-0.765,0-1.386-0.62-1.386-1.385v-1.229
		c0-0.765,0.621-1.385,1.386-1.385h1.229c0.766,0,1.387,0.62,1.387,1.385V20.115z"/>
	<path fill="#FF4747" d="M31.113,22.5h-1.229c-1.314,0-2.386-1.07-2.386-2.385v-1.229c0-1.315,1.069-2.385,2.386-2.385h1.229
		c1.316,0,2.387,1.07,2.387,2.385v1.229C33.5,21.43,32.43,22.5,31.113,22.5z M29.887,18.5c-0.214,0-0.387,0.173-0.387,0.385v1.229
		c0,0.212,0.173,0.385,0.387,0.385h1.229c0.213,0,0.386-0.173,0.386-0.385v-1.229c0-0.212-0.173-0.385-0.386-0.385H29.887z"/>
</g>
<g>
	<path fill="#FFD4D4" d="M32.5,30.113c0,0.766-0.621,1.387-1.387,1.387h-1.229c-0.765,0-1.386-0.621-1.386-1.387v-1.227
		c0-0.767,0.621-1.388,1.386-1.388h1.229c0.766,0,1.387,0.621,1.387,1.388V30.113z"/>
	<path fill="#FF4747" d="M31.113,32.5h-1.229c-1.314,0-2.386-1.07-2.386-2.387v-1.227c0-1.316,1.069-2.388,2.386-2.388h1.229
		c1.316,0,2.387,1.069,2.387,2.388v1.227C33.5,31.43,32.43,32.5,31.113,32.5z M29.887,28.5c-0.214,0-0.387,0.174-0.387,0.387v1.227
		c0,0.214,0.173,0.388,0.387,0.388h1.229c0.213,0,0.386-0.174,0.386-0.388v-1.227c0-0.213-0.173-0.387-0.386-0.387H29.887z"/>
</g>
<g>
	<path fill="#FFD4D4" d="M42.5,20.115c0,0.765-0.621,1.385-1.387,1.385h-1.229c-0.765,0-1.386-0.62-1.386-1.385v-1.229
		c0-0.765,0.621-1.385,1.386-1.385h1.229c0.766,0,1.387,0.62,1.387,1.385V20.115z"/>
	<path fill="#FF4747" d="M41.113,22.5h-1.229c-1.314,0-2.386-1.07-2.386-2.385v-1.229c0-1.315,1.069-2.385,2.386-2.385h1.229
		c1.316,0,2.387,1.07,2.387,2.385v1.229C43.5,21.43,42.43,22.5,41.113,22.5z M39.887,18.5c-0.214,0-0.387,0.173-0.387,0.385v1.229
		c0,0.212,0.173,0.385,0.387,0.385h1.229c0.213,0,0.386-0.173,0.386-0.385v-1.229c0-0.212-0.173-0.385-0.386-0.385H39.887z"/>
</g>
<g>
	<path fill="#FFD4D4" d="M42.5,30.113c0,0.766-0.621,1.387-1.387,1.387h-1.229c-0.765,0-1.386-0.621-1.386-1.387v-1.227
		c0-0.767,0.621-1.388,1.386-1.388h1.229c0.766,0,1.387,0.621,1.387,1.388V30.113z"/>
	<path fill="#FF4747" d="M41.113,32.5h-1.229c-1.314,0-2.386-1.07-2.386-2.387v-1.227c0-1.316,1.069-2.388,2.386-2.388h1.229
		c1.316,0,2.387,1.069,2.387,2.388v1.227C43.5,31.43,42.43,32.5,41.113,32.5z M39.887,28.5c-0.214,0-0.387,0.174-0.387,0.387v1.227
		c0,0.214,0.173,0.388,0.387,0.388h1.229c0.213,0,0.386-0.174,0.386-0.388v-1.227c0-0.213-0.173-0.387-0.386-0.387H39.887z"/>
</g>
</svg>
