<?xml version="1.0" encoding="utf-8"?>
<!-- Generator: Adobe Illustrator 16.0.0, SVG Export Plug-In . SVG Version: 6.00 Build 0)  -->
<!DOCTYPE svg PUBLIC "-//W3C//DTD SVG 1.1//EN" "http://www.w3.org/Graphics/SVG/1.1/DTD/svg11.dtd">
<svg version="1.1" id="图层_1" xmlns="http://www.w3.org/2000/svg" xmlns:xlink="http://www.w3.org/1999/xlink" x="0px" y="0px"
	 width="50px" height="50px" viewBox="0 0 50 50" enable-background="new 0 0 50 50" xml:space="preserve">
<path fill="#FFFFFF" d="M47.865,45.482c0,1.504-1.221,2.725-2.725,2.725H3.59c-1.505,0-2.725-1.221-2.725-2.725V3.932
	c0-1.505,1.22-2.725,2.725-2.725h41.55c1.506,0,2.726,1.22,2.726,2.725L47.865,45.482L47.865,45.482z"/>
<path fill="#FF5757" d="M8.5,1.5H4.565C3.061,1.5,1.5,2.379,1.5,3.884v41.55c0,1.506,1.561,3.065,3.065,3.065H8.5V1.5z"/>
<polygon fill="#FFD4D4" points="42.5,8.798 39.5,7.268 36.5,8.798 36.5,1.5 42.5,1.5 "/>
<path fill="#FF0000" d="M45.775,0.5H4.565h-0.34c-0.854,0-1.631,0.3-2.26,0.784C1.104,1.866,0.5,2.747,0.5,3.884v0.34v41.209v0.342
	c0,2.054,1.671,3.725,3.725,3.725h0.341h41.209c2.055,0,3.726-1.671,3.726-3.725V4.225C49.5,2.171,47.829,0.5,45.775,0.5z M41.5,2.5
	v4.666l-2-1.02l-2,1.02V2.5H41.5z M4.565,47.5C3.62,47.5,2.5,46.381,2.5,45.436V4.225c0-0.557,0.27-1.048,0.68-1.363
	C3.57,2.629,4.077,2.5,4.565,2.5H7.5v45H4.565z M47.5,45.775c0,0.951-0.773,1.725-1.725,1.725H9.5v-45h26v7.93l4-2.04l4,2.04V2.5
	h2.275c0.951,0,1.725,0.773,1.725,1.725V45.775z"/>
<path fill="#FF4747" d="M28.825,36.194c-3.037,0-5.539-1.021-7.437-3.036c-1.844-1.962-2.779-4.507-2.779-7.564
	c0-3.252,1.032-5.951,3.068-8.022c2.051-2.087,4.657-3.146,7.745-3.146c1.881,0,3.45,0.284,4.799,0.869
	c1.611,0.702,2.353,2.583,1.652,4.194c-0.506,1.166-1.654,1.918-2.925,1.918c-0.438,0-0.865-0.089-1.27-0.265
	c-0.357-0.155-1.039-0.341-2.257-0.341c-1.352,0-2.367,0.394-3.198,1.238c-0.834,0.849-1.239,2.011-1.239,3.554
	c0,1.4,0.343,2.445,1.047,3.193c0.662,0.705,1.549,1.032,2.794,1.032c1.122,0,2.011-0.168,2.64-0.499
	c0.457-0.24,0.97-0.367,1.483-0.367c1.188,0,2.27,0.652,2.822,1.703c0.818,1.556,0.22,3.487-1.335,4.306
	C32.883,35.779,30.995,36.194,28.825,36.194z M29.422,16.426c-2.531,0-4.657,0.857-6.318,2.547
	c-1.655,1.685-2.495,3.912-2.495,6.621c0,2.532,0.752,4.616,2.235,6.194c1.504,1.597,3.517,2.406,5.98,2.406
	c1.842,0,3.416-0.337,4.679-1.002c0.579-0.305,0.802-1.024,0.497-1.604c-0.296-0.563-1.033-0.797-1.605-0.498
	c-0.918,0.484-2.12,0.729-3.57,0.729c-1.785,0-3.215-0.56-4.25-1.662c-1.07-1.136-1.59-2.629-1.59-4.563
	c0-2.093,0.593-3.714,1.813-4.956c1.214-1.236,2.727-1.836,4.625-1.836c1.253,0,2.281,0.17,3.055,0.507
	c0.597,0.259,1.31-0.034,1.563-0.616c0.261-0.601-0.016-1.302-0.616-1.563C32.332,16.656,31.023,16.426,29.422,16.426z"/>
</svg>
