<?xml version="1.0" encoding="utf-8"?>
<!-- Generator: Adobe Illustrator 16.0.0, SVG Export Plug-In . SVG Version: 6.00 Build 0)  -->
<!DOCTYPE svg PUBLIC "-//W3C//DTD SVG 1.1//EN" "http://www.w3.org/Graphics/SVG/1.1/DTD/svg11.dtd">
<svg version="1.1" id="图层_1" xmlns="http://www.w3.org/2000/svg" xmlns:xlink="http://www.w3.org/1999/xlink" x="0px" y="0px"
	 width="50px" height="50px" viewBox="0 0 50 50" enable-background="new 0 0 50 50" xml:space="preserve">
<path fill="#FFFFFF" d="M47.5,43.734c0,0.974-0.792,1.766-1.766,1.766H4.265c-0.973,0-1.765-0.792-1.765-1.766V13.265
	c0-0.973,0.792-1.765,1.765-1.765h15.743c0.39,1.62,2.945,2.365,5.338,2.365s4.947-0.746,5.338-2.365h15.053
	c0.973,0,1.765,0.792,1.765,1.765L47.5,43.734L47.5,43.734"/>
<g>
	<path fill="#FFD4D4" d="M29.831,45.594c-0.339-5.949-5.267-10.669-11.3-10.669c-6.032,0-11.03,4.72-11.369,10.669"/>
	<path fill="#FF4747" d="M28.833,45.648c-0.312-5.453-4.836-9.725-10.302-9.725c-5.505,0-10.06,4.271-10.371,9.725l-1.997-0.112
		c0.371-6.511,5.804-11.611,12.368-11.611c6.525,0,11.928,5.101,12.298,11.611L28.833,45.648z"/>
</g>
<g>
	<circle fill="#FFD4D4" cx="18.265" cy="26.979" r="4.807"/>
	<path fill="#FF4747" d="M18.265,32.784c-3.202,0-5.807-2.604-5.807-5.806c0-3.203,2.605-5.809,5.807-5.809
		c3.202,0,5.808,2.605,5.808,5.809C24.072,30.18,21.467,32.784,18.265,32.784z M18.265,23.171c-2.099,0-3.807,1.708-3.807,3.808
		s1.708,3.807,3.807,3.807c2.1,0,3.808-1.707,3.808-3.807C22.072,24.879,20.364,23.171,18.265,23.171z"/>
</g>
<path fill="#FF4747" d="M42.5,21.5h-13c-0.553,0-1-0.448-1-1s0.447-1,1-1h13c0.553,0,1,0.448,1,1S43.053,21.5,42.5,21.5z"/>
<path fill="#FF4747" d="M42.5,25.5h-6c-0.553,0-1-0.448-1-1s0.447-1,1-1h6c0.553,0,1,0.448,1,1S43.053,25.5,42.5,25.5z"/>
<path fill="#FF4747" d="M42.5,29.5h-6c-0.553,0-1-0.447-1-1s0.447-1,1-1h6c0.553,0,1,0.447,1,1S43.053,29.5,42.5,29.5z"/>
<path fill="#FFD4D4" d="M28.5,10.614c0,1.041-0.846,1.886-1.887,1.886h-2.229c-1.041,0-1.886-0.845-1.886-1.886V6.386
	c0-1.041,0.845-1.886,1.886-1.886h2.229c1.041,0,1.887,0.845,1.887,1.886V10.614z"/>
<rect x="24.5" y="6.5" fill="#FF0000" width="2" height="2"/>
<path fill="#FF0000" d="M45.734,9.5H29.93H29.5V6.386c0-1.591-1.295-2.886-2.887-2.886h-2.229c-1.591,0-2.886,1.294-2.886,2.886V9.5
	h-0.738H4.265C2.189,9.5,0.5,11.189,0.5,13.265v30.471c0,2.076,1.689,3.765,3.765,3.765h41.471c2.076,0,3.765-1.688,3.765-3.765
	V13.265C49.5,11.189,47.813,9.5,45.734,9.5z M23.5,6.386c0-0.488,0.397-0.886,0.886-0.886h2.229c0.488,0,0.886,0.397,0.886,0.886
	V9.5h-0.017v1.026c0.007,0.001,0.011,0.003,0.017,0.005v0.083c0,0.488-0.397,0.886-0.886,0.886h-2.229
	c-0.488,0-0.886-0.397-0.886-0.886v-0.161V9.5V6.386z M47.5,43.734c0,0.974-0.792,1.766-1.766,1.766H4.265
	c-0.973,0-1.765-0.792-1.765-1.766V13.265c0-0.973,0.792-1.765,1.765-1.765h15.743c0.39,1.62,2.945,2.365,5.338,2.365
	c2.392,0,4.947-0.746,5.337-2.365h15.053c0.973,0,1.765,0.792,1.765,1.765L47.5,43.734L47.5,43.734z"/>
</svg>
