<?xml version="1.0" encoding="utf-8"?>
<!-- Generator: Adobe Illustrator 16.0.0, SVG Export Plug-In . SVG Version: 6.00 Build 0)  -->
<!DOCTYPE svg PUBLIC "-//W3C//DTD SVG 1.1//EN" "http://www.w3.org/Graphics/SVG/1.1/DTD/svg11.dtd">
<svg version="1.1" id="图层_1" xmlns="http://www.w3.org/2000/svg" xmlns:xlink="http://www.w3.org/1999/xlink" x="0px" y="0px"
	 width="50px" height="50px" viewBox="0 0 50 50" enable-background="new 0 0 50 50" xml:space="preserve">
<path fill="#FFFFFF" d="M47.502,45.75c0,0.994-0.809,1.803-1.801,1.803h-41.4c-0.993,0-1.801-0.809-1.801-1.803V12.552h45.002V45.75
	z"/>
<path fill="#FF5757" d="M47.5,11.5V4.652c0-1.547,0.421-2.152-1.126-2.152H4.352C2.805,2.5,0.5,3.104,0.5,4.652V11.5H47.5z"/>
<path fill="#FFFFFF" d="M12.5,5.902c0,0.883-0.715,1.598-1.598,1.598h-0.804C9.215,7.5,8.5,6.785,8.5,5.902V3.098
	C8.5,2.215,9.215,1.5,10.098,1.5h0.804c0.883,0,1.598,0.715,1.598,1.598V5.902z"/>
<path fill="#FFFFFF" d="M41.5,5.902c0,0.883-0.716,1.598-1.6,1.598h-0.803c-0.883,0-1.599-0.715-1.599-1.598V3.098
	c0-0.883,0.716-1.598,1.599-1.598H39.9c0.884,0,1.6,0.715,1.6,1.598V5.902z"/>
<path fill="#FF0000" d="M48.098,2.376C47.441,1.837,46.613,1.5,45.701,1.5h-1.053h-2.713c-0.477-0.604-1.205-1-2.033-1H39.1
	c-0.826,0-1.557,0.396-2.031,1H12.935c-0.476-0.604-1.206-1-2.033-1h-0.804c-0.827,0-1.557,0.396-2.033,1H5.352H4.301
	c-0.913,0-1.741,0.337-2.396,0.876C1.06,2.903,0.5,3.664,0.5,4.652v0.65v40.395c0,2.098,1.705,3.803,3.801,3.803h41.4
	c2.096,0,3.801-1.705,3.801-3.803V5.302v-0.65C49.502,3.664,48.941,2.903,48.098,2.376z M38.502,3.5V3.098
	c0-0.33,0.27-0.598,0.598-0.598h0.805c0.33,0,0.599,0.269,0.599,0.598V3.5v2.402c0,0.33-0.269,0.598-0.599,0.598H39.1
	c-0.328,0-0.598-0.269-0.598-0.598V3.5z M9.5,3.5V3.098c0-0.33,0.269-0.598,0.598-0.598h0.804c0.33,0,0.598,0.269,0.598,0.598V3.5
	v2.402c0,0.33-0.269,0.598-0.598,0.598h-0.804C9.769,6.5,9.5,6.231,9.5,5.902V3.5z M47.502,45.697c0,0.994-0.809,1.803-1.801,1.803
	h-41.4c-0.993,0-1.801-0.809-1.801-1.803V12.5h45.002V45.697z M47.502,10.5H2.5V5.302c0-0.514,0.219-0.976,0.565-1.304
	C3.631,3.695,4.532,3.5,5.352,3.5H7.5v2.402C7.5,7.334,8.666,8.5,10.098,8.5h0.804c1.433,0,2.598-1.166,2.598-2.598V3.5h23.002
	v2.402c0,1.433,1.165,2.598,2.598,2.598h0.805c1.433,0,2.599-1.166,2.599-2.598V3.5h2.147c0.82,0,1.722,0.195,2.287,0.498
	c0.347,0.329,0.564,0.79,0.564,1.304V10.5L47.502,10.5z"/>
<path fill="#FF0000" d="M37.24,38.019l-5.786-4.798c-0.17-0.17-0.775-0.726-1.471-0.726c-0.193,0-0.371,0.057-0.535,0.139
	c1.309-1.484,2.11-3.426,2.11-5.556c0-4.642-3.776-8.418-8.418-8.418c-4.642,0-8.417,3.776-8.417,8.418s3.776,8.418,8.417,8.418
	c2.231,0,4.257-0.879,5.765-2.301c-0.062,0.146-0.097,0.303-0.097,0.468c-0.002,0.72,0.597,1.356,0.652,1.406l4.898,5.952
	c0.359,0.36,0.838,0.56,1.348,0.56c0.506,0,0.982-0.196,1.342-0.555l0.255-0.254c0.36-0.358,0.56-0.836,0.561-1.344
	S37.669,38.443,37.24,38.019z M23.14,33.496c-3.539,0-6.417-2.879-6.417-6.418s2.879-6.418,6.417-6.418
	c3.54,0,6.418,2.879,6.418,6.418S26.68,33.496,23.14,33.496z"/>
</svg>
