<?xml version="1.0" encoding="utf-8"?>
<!-- Generator: Adobe Illustrator 16.0.0, SVG Export Plug-In . SVG Version: 6.00 Build 0)  -->
<!DOCTYPE svg PUBLIC "-//W3C//DTD SVG 1.1//EN" "http://www.w3.org/Graphics/SVG/1.1/DTD/svg11.dtd">
<svg version="1.1" id="图层_1" xmlns="http://www.w3.org/2000/svg" xmlns:xlink="http://www.w3.org/1999/xlink" x="0px" y="0px"
	 width="50px" height="50px" viewBox="0 0 50 50" enable-background="new 0 0 50 50" xml:space="preserve">
<path fill="#FFFFFF" d="M46.5,35.879c0,1.148-0.63,1.621-1.777,1.621H5.269c-1.146,0-1.769-0.473-1.769-1.621V9.576
	C3.5,8.429,4.122,7.5,5.269,7.5h39.454c1.147,0,1.777,0.929,1.777,2.076V35.879z"/>
<path fill="#FF0000" d="M44.723,6.5H5.269C3.639,6.5,2.5,7.765,2.5,9.576v26.303c0,1.666,1.009,2.621,2.769,2.621h18.247
	l-10.189,8.733c-0.419,0.359-0.468,0.99-0.108,1.409c0.198,0.231,0.478,0.35,0.76,0.35c0.23,0,0.462-0.079,0.65-0.241l11.058-9.479
	l11.063,9.48c0.188,0.161,0.42,0.24,0.65,0.24c0.281,0,0.562-0.118,0.76-0.35c0.359-0.419,0.311-1.051-0.109-1.41L27.86,38.5h16.862
	c1.765,0,2.777-0.955,2.777-2.621V9.576C47.5,7.765,46.358,6.5,44.723,6.5z M45.5,35.879c0,0.427,0,0.621-0.777,0.621H5.269
	C4.5,36.5,4.5,36.306,4.5,35.879V9.576C4.5,9.252,4.575,8.5,5.269,8.5h39.454c0.701,0,0.777,0.752,0.777,1.076V35.879z"/>
<path fill="#FF6969" d="M19.73,22.113l6.979-5.318c-0.959-1.588-2.321-2.617-4.063-3.411L19.73,22.113z"/>
<path fill="#FF6969" d="M18.132,23.543l3.113-9.065c-0.975-0.343-2.021-0.53-3.113-0.53c-5.185,0-9.388,4.203-9.388,9.388
	s4.203,9.388,9.388,9.388c1.776,0,3.436-0.494,4.851-1.35L18.132,23.543z"/>
<path fill="#FF6969" d="M19.331,23.543l4.347,7.364c2.328-1.709,3.84-4.464,3.84-7.572c0-1.771-0.488-3.429-1.343-4.841
	L19.331,23.543z"/>
<path fill="#FF7A7A" d="M39.5,18.5h-9c-0.553,0-1-0.448-1-1s0.447-1,1-1h9c0.553,0,1,0.448,1,1S40.053,18.5,39.5,18.5z"/>
<path fill="#FF7A7A" d="M39.5,22.5h-9c-0.553,0-1-0.448-1-1s0.447-1,1-1h9c0.553,0,1,0.448,1,1S40.053,22.5,39.5,22.5z"/>
<path fill="#FF7A7A" d="M39.5,26.5h-9c-0.553,0-1-0.447-1-1c0-0.552,0.447-1,1-1h9c0.553,0,1,0.448,1,1
	C40.5,26.053,40.053,26.5,39.5,26.5z"/>
<path fill="#FF7A7A" d="M39.5,30.5h-9c-0.553,0-1-0.447-1-1s0.447-1,1-1h9c0.553,0,1,0.447,1,1S40.053,30.5,39.5,30.5z"/>
<path fill="#FF0000" d="M28.5,4.5h-6c-1.104,0-2-0.896-2-2s0.896-2,2-2h6c1.104,0,2,0.896,2,2S29.604,4.5,28.5,4.5z"/>
<path fill="#FF0000" d="M47.5,9.5h-45c-1.104,0-2-0.896-2-2s0.896-2,2-2h45c1.104,0,2,0.896,2,2S48.604,9.5,47.5,9.5z"/>
</svg>
