<?xml version="1.0" encoding="utf-8"?>
<!-- Generator: Adobe Illustrator 16.0.0, SVG Export Plug-In . SVG Version: 6.00 Build 0)  -->
<!DOCTYPE svg PUBLIC "-//W3C//DTD SVG 1.1//EN" "http://www.w3.org/Graphics/SVG/1.1/DTD/svg11.dtd">
<svg version="1.1" id="图层_1" xmlns="http://www.w3.org/2000/svg" xmlns:xlink="http://www.w3.org/1999/xlink" x="0px" y="0px"
	 width="50px" height="50px" viewBox="0 0 50 50" enable-background="new 0 0 50 50" xml:space="preserve">
<path fill="#FFFFFF" d="M48.5,45.775c0,1.504-1.221,2.725-2.725,2.725H4.225C2.72,48.5,1.5,47.279,1.5,45.775V4.225
	C1.5,2.72,2.72,1.5,4.225,1.5h41.55c1.506,0,2.726,1.22,2.726,2.725L48.5,45.775L48.5,45.775z"/>
<path fill="#FF4747" d="M26,36.163c-1.897,0-3.5-1.556-3.5-3.397V20.5h-2.551c-2,0-3.397-1.233-3.397-3c0-1.766,1.397-3,3.397-3
	h12.189c2,0,3.397,1.234,3.397,3c0,1.767-1.397,3-3.397,3H29.5v12.266C29.5,34.607,27.897,36.163,26,36.163z M19.949,16.5
	c-0.521,0-1.397,0.13-1.397,1s0.875,1,1.397,1H24.5v14.266c0,0.744,0.701,1.397,1.5,1.397c0.799,0,1.5-0.653,1.5-1.397V18.5h4.639
	c0.521,0,1.397-0.13,1.397-1s-0.876-1-1.397-1H19.949z"/>
<path fill="#FF5757" d="M8.5,1.5H4.565C3.061,1.5,1.5,2.379,1.5,3.884v41.55c0,1.506,1.561,3.065,3.065,3.065H8.5V1.5z"/>
<polygon fill="#FFD4D4" points="42.5,8.798 39.5,7.268 36.5,8.798 36.5,1.5 42.5,1.5 "/>
<path fill="#FF0000" d="M45.775,0.5H4.565h-0.34c-0.854,0-1.631,0.3-2.26,0.784C1.104,1.866,0.5,2.747,0.5,3.884v0.34v41.209v0.342
	c0,2.054,1.671,3.725,3.725,3.725h0.341h41.209c2.055,0,3.726-1.671,3.726-3.725V4.225C49.5,2.171,47.829,0.5,45.775,0.5z M41.5,2.5
	v4.666l-2-1.02l-2,1.02V2.5H41.5z M4.565,47.5C3.62,47.5,2.5,46.381,2.5,45.436V4.225c0-0.557,0.27-1.048,0.68-1.363
	C3.57,2.629,4.077,2.5,4.565,2.5H7.5v45H4.565z M47.5,45.775c0,0.951-0.773,1.725-1.725,1.725H9.5v-45h26v7.93l4-2.04l4,2.04V2.5
	h2.275c0.951,0,1.725,0.773,1.725,1.725V45.775z"/>
</svg>
