<?xml version="1.0" encoding="utf-8"?>
<!-- Generator: Adobe Illustrator 16.0.0, SVG Export Plug-In . SVG Version: 6.00 Build 0)  -->
<!DOCTYPE svg PUBLIC "-//W3C//DTD SVG 1.1//EN" "http://www.w3.org/Graphics/SVG/1.1/DTD/svg11.dtd">
<svg version="1.1" id="图层_1" xmlns="http://www.w3.org/2000/svg" xmlns:xlink="http://www.w3.org/1999/xlink" x="0px" y="0px"
	 width="50px" height="50px" viewBox="0 0 50 50" enable-background="new 0 0 50 50" xml:space="preserve">
<path fill="#FFFFFF" d="M47.502,45.75c0,0.994-0.808,1.803-1.801,1.803h-41.4c-0.993,0-1.801-0.809-1.801-1.803V12.552h45.002V45.75
	z"/>
<g>
	<g>
		<g>
			<path fill="#FFD4D4" d="M36.706,28.778c-0.239-1.073-1.334-1.928-2.434-1.896c0,0-0.723,0.02-1.419-1.181
				c-0.694-1.203-0.318-1.816-0.318-1.816c0.574-0.938,0.339-2.263-0.524-2.945l-2.155-1.229c-1.02-0.413-2.283,0.039-2.809,1.006
				c0,0-0.344,0.632-1.733,0.632s-1.732-0.632-1.732-0.632c-0.525-0.966-1.789-1.419-2.808-1.006l-2.156,1.229
				c-0.863,0.682-1.099,2.008-0.524,2.946c0,0,0.376,0.614-0.319,1.816c-0.695,1.201-1.419,1.181-1.419,1.181
				c-1.1-0.03-2.195,0.823-2.434,1.896c0,0-0.034,0.151-0.034,1.271c0,1.121,0.034,1.272,0.034,1.272
				c0.239,1.073,1.334,1.928,2.434,1.896c0,0,0.724-0.02,1.419,1.186c0.694,1.202,0.318,1.816,0.318,1.816
				c-0.575,0.938-0.339,2.263,0.524,2.945l2.157,1.229c1.02,0.414,2.283-0.039,2.808-1.006c0,0,0.343-0.632,1.732-0.632
				c1.389,0,1.732,0.633,1.732,0.633c0.525,0.966,1.789,1.419,2.809,1.005l2.155-1.229c0.863-0.683,1.1-2.008,0.525-2.946
				c0,0-0.376-0.613,0.317-1.816c0.696-1.204,1.419-1.185,1.419-1.185c1.1,0.03,2.195-0.824,2.435-1.897c0,0,0.033-0.15,0.033-1.271
				C36.74,28.93,36.706,28.778,36.706,28.778z M25.016,35.863c-3.09,0-5.603-2.514-5.603-5.604c0-3.088,2.513-5.597,5.603-5.597
				s5.603,2.509,5.603,5.597C30.618,33.35,28.105,35.863,25.016,35.863z"/>
		</g>
		<g>
			<path fill="#FF4747" d="M29.055,41.547c-1.165,0-2.269-0.624-2.84-1.598c-0.063-0.047-0.307-0.193-0.9-0.193
				c-0.593,0-0.837,0.146-0.901,0.193c-0.771,1.316-2.591,1.947-4.016,1.371l-0.119-0.058l-2.282-1.313
				c-1.245-0.984-1.588-2.799-0.805-4.17c0.009-0.078,0.014-0.362-0.283-0.876c-0.308-0.532-0.563-0.662-0.627-0.688
				c-1.589-0.046-3.008-1.205-3.336-2.677c-0.019-0.085-0.058-0.259-0.058-1.49c0-1.229,0.039-1.403,0.058-1.487
				c0.334-1.503,1.806-2.68,3.352-2.681c0.016-0.007,0.285-0.116,0.612-0.681c0.296-0.512,0.292-0.796,0.283-0.875
				c-0.784-1.372-0.44-3.186,0.805-4.17l0.125-0.084l2.276-1.287c1.423-0.577,3.244,0.055,4.015,1.372
				c0.063,0.047,0.308,0.193,0.901,0.193s0.838-0.146,0.902-0.193c0.771-1.314,2.588-1.95,4.016-1.371l0.119,0.058l2.28,1.313
				c1.245,0.984,1.589,2.798,0.806,4.17c-0.009,0.079-0.014,0.363,0.283,0.876c0.307,0.528,0.563,0.657,0.626,0.683
				c1.59,0.046,3.008,1.205,3.336,2.677c0.019,0.082,0.059,0.258,0.059,1.488s-0.038,1.403-0.057,1.487
				c-0.336,1.505-1.808,2.682-3.353,2.683c-0.015,0.007-0.284,0.117-0.612,0.685c-0.295,0.513-0.291,0.797-0.281,0.875
				c0.783,1.373,0.438,3.187-0.807,4.171l-0.125,0.085l-2.274,1.286C29.861,41.471,29.465,41.547,29.055,41.547z M25.314,37.756
				c1.888,0,2.506,0.963,2.611,1.155c0.266,0.487,0.975,0.76,1.502,0.575l2.011-1.146c0.427-0.381,0.543-1.111,0.245-1.6
				c-0.114-0.186-0.639-1.202,0.304-2.837c0.904-1.564,1.976-1.686,2.283-1.686h0.001c0.673,0,1.327-0.521,1.46-1.115
				c-0.001,0-0.001,0-0.001,0c-0.005,0,0.01-0.262,0.01-1.054c0-0.902-0.022-1.121-0.023-1.13c-0.119-0.517-0.772-1.038-1.386-1.038
				c-0.001,0-0.003,0-0.004,0c-0.371,0-1.438-0.125-2.339-1.678c-0.944-1.637-0.421-2.653-0.306-2.841
				c0.299-0.487,0.183-1.217-0.244-1.598l-2.011-1.146c-0.531-0.184-1.237,0.089-1.502,0.576c-0.105,0.193-0.724,1.154-2.612,1.154
				s-2.506-0.962-2.611-1.154c-0.264-0.488-0.971-0.758-1.501-0.576l-2.012,1.146c-0.426,0.381-0.542,1.111-0.243,1.598
				c0.115,0.188,0.639,1.204-0.306,2.838c-0.902,1.56-1.976,1.681-2.283,1.681c0,0-0.001,0-0.001,0
				c-0.668,0-1.318,0.514-1.456,1.103c0-0.001,0-0.001,0-0.001c0.005,0-0.013,0.263-0.013,1.065c0,0.906,0.022,1.125,0.023,1.134
				c0.119,0.515,0.772,1.036,1.386,1.036c0.36-0.019,1.44,0.119,2.344,1.685c0.944,1.634,0.42,2.651,0.305,2.839
				c-0.299,0.487-0.183,1.217,0.243,1.598l2.012,1.146c0.535,0.183,1.237-0.089,1.501-0.576
				C22.808,38.718,23.426,37.756,25.314,37.756z M25.016,36.863c-3.641,0-6.603-2.962-6.603-6.604c0-3.638,2.962-6.597,6.603-6.597
				c3.641,0,6.603,2.959,6.603,6.597C31.618,33.901,28.656,36.863,25.016,36.863z M25.016,25.663c-2.538,0-4.603,2.063-4.603,4.597
				c0,2.538,2.065,4.604,4.603,4.604s4.603-2.065,4.603-4.604C29.618,27.726,27.554,25.663,25.016,25.663z"/>
		</g>
	</g>
</g>
<path fill="#FF5757" d="M47.5,11.5V4.652c0-1.547,0.421-2.152-1.126-2.152H4.352C2.805,2.5,0.5,3.104,0.5,4.652V11.5H47.5z"/>
<path fill="#FFFFFF" d="M12.5,5.902c0,0.883-0.715,1.598-1.598,1.598h-0.804C9.215,7.5,8.5,6.785,8.5,5.902V3.098
	C8.5,2.215,9.215,1.5,10.098,1.5h0.804c0.883,0,1.598,0.715,1.598,1.598V5.902z"/>
<path fill="#FFFFFF" d="M41.5,5.902c0,0.883-0.716,1.598-1.599,1.598h-0.803c-0.883,0-1.599-0.715-1.599-1.598V3.098
	c0-0.883,0.716-1.598,1.599-1.598h0.803c0.883,0,1.599,0.715,1.599,1.598V5.902z"/>
<path fill="#FF0000" d="M48.098,2.376C47.441,1.837,46.614,1.5,45.701,1.5h-1.052h-2.713c-0.477-0.604-1.206-1-2.033-1H39.1
	c-0.827,0-1.557,0.396-2.032,1H12.935c-0.476-0.604-1.206-1-2.033-1h-0.804c-0.827,0-1.557,0.396-2.033,1H5.352H4.301
	c-0.913,0-1.741,0.337-2.396,0.876C1.06,2.903,0.5,3.664,0.5,4.652v0.65v40.396c0,2.097,1.705,3.802,3.801,3.802h41.4
	c2.096,0,3.801-1.705,3.801-3.802V5.302v-0.65C49.502,3.664,48.941,2.903,48.098,2.376z M38.502,3.5V3.098
	c0-0.33,0.269-0.598,0.598-0.598h0.804c0.33,0,0.599,0.269,0.599,0.598V3.5v2.402c0,0.33-0.269,0.598-0.599,0.598H39.1
	c-0.329,0-0.598-0.269-0.598-0.598V3.5z M9.5,3.5V3.098c0-0.33,0.269-0.598,0.598-0.598h0.804c0.33,0,0.598,0.269,0.598,0.598V3.5
	v2.402c0,0.33-0.269,0.598-0.598,0.598h-0.804C9.769,6.5,9.5,6.231,9.5,5.902V3.5z M47.502,45.698c0,0.993-0.808,1.802-1.801,1.802
	h-41.4c-0.993,0-1.801-0.809-1.801-1.802V12.5h45.002V45.698z M47.502,10.5H2.5V5.302c0-0.514,0.219-0.976,0.565-1.304
	C3.631,3.695,4.532,3.5,5.352,3.5H7.5v2.402C7.5,7.334,8.666,8.5,10.098,8.5h0.804c1.433,0,2.598-1.166,2.598-2.598V3.5h23.002
	v2.402c0,1.433,1.165,2.598,2.598,2.598h0.804c1.433,0,2.599-1.166,2.599-2.598V3.5h2.147c0.82,0,1.722,0.195,2.287,0.498
	c0.347,0.329,0.565,0.79,0.565,1.304V10.5z"/>
</svg>
