<?xml version="1.0" encoding="utf-8"?>
<!-- Generator: Adobe Illustrator 16.0.0, SVG Export Plug-In . SVG Version: 6.00 Build 0)  -->
<!DOCTYPE svg PUBLIC "-//W3C//DTD SVG 1.1//EN" "http://www.w3.org/Graphics/SVG/1.1/DTD/svg11.dtd">
<svg version="1.1" id="图层_1" xmlns="http://www.w3.org/2000/svg" xmlns:xlink="http://www.w3.org/1999/xlink" x="0px" y="0px"
	 width="50px" height="50px" viewBox="0 0 50 50" enable-background="new 0 0 50 50" xml:space="preserve">
<path opacity="0.25" fill="#FFFFFF" d="M16.478,50c-4.777-0.189-9.509-0.994-12.519-3.917C0.852,43.471,0.137,37.539,0,32.107
	V17.893C0.137,12.461,0.852,6.53,3.958,3.917C6.968,0.994,11.7,0.189,16.478,0h17.043c4.773,0.189,9.51,0.994,12.52,3.917
	c3.105,2.613,3.82,8.544,3.959,13.976v14.214c-0.139,5.432-0.854,11.359-3.959,13.976c-3.01,2.923-7.741,3.728-12.52,3.917H16.478z"
	/>
<path display="none" d="M16.478,50c-4.777-0.189-9.509-0.994-12.519-3.917C0.852,43.471,0.137,37.539,0,32.107V17.893
	C0.137,12.461,0.852,6.53,3.958,3.917C6.968,0.994,11.7,0.189,16.478,0h17.045c4.772,0.189,9.509,0.994,12.519,3.917
	C49.146,6.53,49.861,12.461,50,17.893v14.214c-0.139,5.433-0.854,11.363-3.959,13.977c-3.01,2.922-7.741,3.727-12.52,3.916H16.478z"
	/>
<g id="图层_2" display="none">
	<g display="inline">
		<path d="M23.669,41.874l-4.4-22.583l-3.184,9.96L2.807,29.544c-0.322,0.002-0.504-0.214-0.511-0.489
			c-0.006-0.275,0.213-0.505,0.489-0.511l12.565-0.276l4.154-12.997l4.179,21.441L29.73,6.475L34.984,29h7.014
			c0.275,0,0.5,0.225,0.5,0.5s-0.225,0.5-0.5,0.5h-7.807l-4.387-18.803L23.669,41.874z"/>
	</g>
	<g display="inline">
		<path d="M44.604,50H7.428c-2.452,0-4.426-2.887-4.426-5.275V30c0-0.828,0.671-1.5,1.5-1.5s1.5,0.672,1.5,1.5v14.725
			C6.003,45.725,6.969,47,7.428,47h37.175C44.678,46.908,45,46.156,45,44.725V3.336c0-0.135-0.003-0.242-0.008-0.326
			C44.895,3.004,44.768,3,44.604,3H7.428c-1.05,0-1.36,0.164-1.42,0.204c0.002,0.01-0.005,0.054-0.005,0.132V23
			c0,0.829-0.671,1.5-1.5,1.5s-1.5-0.671-1.5-1.5V3.336C3.003,2.09,3.579,0,7.428,0h37.175C47.016,0,48,0.966,48,3.336v41.389
			C47.998,49.619,45.398,50,44.604,50z"/>
	</g>
</g>
<g id="图层_2_1_" display="none">
	<g display="inline">
		<path d="M24.5,39.333c-10.781,0-19.552-8.771-19.552-19.553c0-10.782,8.771-19.552,19.552-19.552
			c10.781,0,19.553,8.771,19.553,19.552S35.281,39.333,24.5,39.333z M24.5,3.228c-9.127,0-16.552,7.425-16.552,16.553
			c0,9.127,7.425,16.553,16.552,16.553s16.553-7.426,16.553-16.553C41.053,10.653,33.627,3.228,24.5,3.228z"/>
	</g>
	<g display="inline">
		<path d="M16.113,50.049c-0.168,0-0.34-0.027-0.507-0.088c-0.779-0.279-1.185-1.141-0.904-1.919l3.501-9.746
			c0.28-0.78,1.141-1.183,1.919-0.905c0.779,0.28,1.185,1.141,0.904,1.92l-3.501,9.746C17.305,49.668,16.728,50.049,16.113,50.049z"
			/>
	</g>
	<g display="inline">
		<path d="M32.887,50.049c-0.615,0-1.191-0.381-1.412-0.992l-3.5-9.746c-0.279-0.779,0.125-1.64,0.904-1.92
			c0.777-0.277,1.639,0.125,1.919,0.905l3.501,9.746c0.279,0.778-0.125,1.64-0.904,1.919C33.227,50.021,33.055,50.049,32.887,50.049
			z"/>
	</g>
	<g display="inline">
		<path d="M37,50H12c-0.829,0-1.5-0.672-1.5-1.5S11.171,47,12,47h25c0.828,0,1.5,0.672,1.5,1.5S37.828,50,37,50z"/>
	</g>
	<g display="inline">
		<path d="M24.5,25.516c-3.244,0-5.884-2.64-5.884-5.884c0-3.244,2.64-5.883,5.884-5.883s5.884,2.639,5.884,5.883
			C30.384,22.876,27.744,25.516,24.5,25.516z M24.5,14.748c-2.693,0-4.884,2.19-4.884,4.883s2.191,4.884,4.884,4.884
			c2.693,0,4.884-2.191,4.884-4.884S27.193,14.748,24.5,14.748z"/>
	</g>
	<g display="inline">
		<circle cx="24.501" cy="11.201" r="0.93"/>
	</g>
</g>
<g display="none">
	<g display="inline">
		<path d="M28,42.582v3.354c0.023-0.424,0.134-0.84,0.357-1.207C28.357,44.729,28.805,43.996,28,42.582z"/>
		<path d="M47.646,41.145c0,0-0.271,0.002-0.646,0.236v0.78c0,1.205-0.445,2.304-1.18,3.149c0.311,1.022-0.016,2.229-0.869,2.906
			l-2.588,1.477c-1.209,0.49-2.706-0.047-3.329-1.19c0,0-0.414-0.763-2.069-0.765c-1.654,0.002-2.068,0.765-2.068,0.765
			c-0.621,1.146-2.119,1.683-3.328,1.192l-2.588-1.479c-0.6-0.477-0.936-1.213-0.979-1.965V47h-6v-6h3.368
			c-0.552-0.186-1.048-0.544-1.415-1H22v-6h2.808c0.45-0.264,0.959-0.417,1.475-0.402c0,0,0.498,0.012,1.098-0.598H22v-6h6v1.479
			c0.046-0.75,0.382-1.48,0.98-1.957L29.896,26H29v-6h6v6h-0.268c0.057,0.078,0.117,0.152,0.162,0.238c0,0,0.412,0.75,2.037,0.762
			h0.063c1.624-0.012,2.033-0.762,2.033-0.762c0.049-0.086,0.104-0.16,0.162-0.238H36v-6h6v4.94
			c0.122,0.029,0.244,0.058,0.361,0.106L43,25.41V20h4v6h-2.966l0.915,0.521c0.174,0.138,0.316,0.303,0.447,0.479H47v6h-0.45
			c0.601,0.607,1.097,0.598,1.097,0.598c0.9-0.025,1.791,0.457,2.354,1.174V7.839C50,3.517,46.482,0,42.161,0H7.839
			C3.517,0,0,3.517,0,7.839v34.322C0,46.482,3.517,50,7.839,50h34.322C46.482,50,50,46.482,50,42.161v-2.192
			C49.438,40.688,48.547,41.169,47.646,41.145z M43,13h4v6h-4V13z M36,13h6v6h-6V13z M29,13h6v6h-6V13z M22,13h6v6h-6V13z M22,20h6
			v6h-6V20z M7,46.915c-2.268-0.399-4-2.373-4-4.754V41h4V46.915z M7,40H3v-6h4V40z M7,33H3v-6h4V33z M7,26H3v-6h4V26z M7,19H3v-6h4
			V19z M14,47H8v-6h6V47z M14,40H8v-6h6V40z M14,33H8v-6h6V33z M14,26H8v-6h6V26z M14,19H8v-6h6V19z M21,47h-6v-6h6V47z M21,40h-6
			v-6h6V40z M21,33h-6v-6h6V33z M21,26h-6v-6h6V26z M21,19h-6v-6h6V19z"/>
		<path d="M28.357,30.014c-0.228-0.365-0.334-0.781-0.357-1.203v3.348C28.803,30.745,28.357,30.014,28.357,30.014z"/>
	</g>
	<g display="inline">
		<path d="M36.665,33.359c-2.328,0-4.224,1.895-4.224,4.223c0,2.329,1.896,4.225,4.224,4.225c2.329,0,4.224-1.896,4.224-4.225
			C40.889,35.254,38.994,33.359,36.665,33.359z"/>
	</g>
	<path display="inline" d="M48.411,36.084c-0.239-1.072-1.334-1.928-2.435-1.896c0,0-0.736,0.021-1.438-1.188
		c-0.698-1.21-0.313-1.834-0.313-1.834c0.571-0.938,0.338-2.268-0.522-2.943l-2.187-1.246c-1.021-0.412-2.283,0.041-2.811,1.008
		c0,0-0.352,0.646-1.745,0.646s-1.746-0.646-1.746-0.646c-0.522-0.967-1.786-1.42-2.808-1.008l-2.186,1.246
		c-0.863,0.682-1.103,2.008-0.523,2.942c0,0,0.384,0.626-0.313,1.835c-0.696,1.21-1.438,1.188-1.438,1.188
		c-1.103-0.029-2.192,0.824-2.434,1.896c0,0-0.038,0.161-0.038,1.287c0,1.125,0.038,1.287,0.038,1.287
		c0.237,1.072,1.334,1.928,2.436,1.896c0,0,0.734-0.021,1.439,1.188c0.693,1.209,0.313,1.834,0.313,1.834
		c-0.574,0.938-0.342,2.263,0.521,2.943l2.187,1.244c1.021,0.414,2.28-0.039,2.809-1.008c0,0,0.353-0.646,1.745-0.646
		c1.396,0,1.746,0.646,1.746,0.646c0.521,0.969,1.789,1.422,2.813,1.008l2.185-1.244c0.86-0.685,1.099-2.008,0.522-2.943
		c0,0-0.387-0.625,0.313-1.834c0.696-1.211,1.438-1.188,1.438-1.188c1.102,0.025,2.191-0.824,2.436-1.898
		c0,0,0.035-0.16,0.035-1.285C48.447,36.245,48.411,36.084,48.411,36.084z M36.665,43.213c-3.104,0-5.631-2.525-5.631-5.631
		s2.524-5.63,5.631-5.63c3.104,0,5.631,2.524,5.631,5.63S39.77,43.213,36.665,43.213z"/>
</g>
<g id="图层_3" display="none">
	<g display="inline">
		<path d="M35,7H14c-0.276,0-0.5-0.224-0.5-0.5S13.724,6,14,6h21c0.275,0,0.5,0.224,0.5,0.5S35.275,7,35,7z"/>
	</g>
	<g display="inline">
		<path d="M37,11H12c-0.276,0-0.5-0.224-0.5-0.5S11.724,10,12,10h25c0.275,0,0.5,0.224,0.5,0.5S37.275,11,37,11z"/>
	</g>
	<g display="inline">
		<path d="M40,16H9c-0.276,0-0.5-0.224-0.5-0.5S8.724,15,9,15h31c0.275,0,0.5,0.224,0.5,0.5S40.275,16,40,16z"/>
	</g>
	<path display="inline" d="M50,22.843v-2.764V20h-0.035L41.357,0.884C41.116,0.346,40.58,0,39.99,0H10.082
		c-0.583,0-1.114,0.338-1.36,0.867L0,19.61v1.934v21.685C0,46.425,2.408,50,5.631,50h39.167C48.012,50,50,46.484,50,43.229V22.843z
		 M36,38H15v-5h21V38z M3.127,20l7.911-17H39.02l7.653,17H3.127z"/>
</g>
<g id="图层_4" display="none">
	<g display="inline">
		<polygon points="15.288,8.37 5.544,-0.21 0.251,5.083 8.93,14.729 10.06,13.598 18.77,22.308 22.539,18.199 13.999,9.659 		"/>
		<polygon points="30.762,26.421 26.549,30.087 36.139,39.68 40.078,35.738 		"/>
	</g>
	<path display="inline" d="M47.758,5.5l-1.133,4.442l-5.161,1.447l-3.831-3.744l1.324-5.192l4.344-1.22
		c-3.968-1.999-8.93-1.349-12.242,1.965c-2.865,2.864-3.74,6.959-2.636,10.581L10.036,33.822c-0.791-0.272-1.628-0.424-2.49-0.424
		c-2.03,0-3.938,0.791-5.375,2.227c-1.435,1.436-2.226,3.346-2.226,5.374c0,2.03,0.791,3.938,2.225,5.374
		c1.436,1.438,3.344,2.229,5.375,2.229c2.03,0,3.939-0.791,5.374-2.229c2.072-2.072,2.69-5.053,1.863-7.672l20.604-17.922
		c3.635,1.131,7.758,0.264,10.635-2.614C49.457,14.732,50.027,9.533,47.758,5.5z M9.385,42.838c-0.983,0.984-2.695,0.984-3.677,0
		c-0.491-0.49-0.761-1.145-0.761-1.839s0.271-1.349,0.761-1.839c0.491-0.49,1.144-0.762,1.839-0.762
		c0.694,0,1.348,0.271,1.838,0.762C10.398,40.174,10.398,41.824,9.385,42.838z"/>
	<path display="inline" d="M41.305,32.335l-8.91,8.908c-0.008,0.008-0.123,0.125-0.123,0.125l7.229,7.226
		c1.554,1.551,4.354,1.616,5.901,0.065l3.318-3.318c1.551-1.552,1.262-4.132-0.289-5.682l-7.227-7.226
		C41.206,32.434,41.313,32.326,41.305,32.335z M43.549,45.496c0.539,0.54,0.539,1.413,0,1.953l-0.091,0.09
		c-0.539,0.539-1.413,0.539-1.952,0l-5.451-5.451c-0.539-0.539-0.539-1.413,0-1.953l0.09-0.09c0.539-0.539,1.412-0.539,1.953,0
		L43.549,45.496z M47.377,41.669c0.538,0.539,0.538,1.413,0,1.952l-0.09,0.088c-0.54,0.541-1.414,0.541-1.954,0l-5.448-5.449
		c-0.539-0.539-0.539-1.412,0-1.951l0.09-0.092c0.539-0.537,1.414-0.537,1.953,0L47.377,41.669z"/>
</g>
<g id="图层_5" display="none">
	<path display="inline" d="M49,7.02V7h-0.012l-3.68-7H5.729L2,7v4.441V43v2.559C2,48.008,3.992,50,6.44,50h38.121
		C47.008,50,49,48.008,49,45.559V43V11.441V7.02z M46,43v2.559C46,46.354,45.354,47,44.561,47H6.44C5.646,47,5,46.354,5,45.559V43
		V11.441C5,10.646,5.646,10,6.44,10H10v14.765v0.906l4-2.521l4,2.521V10h26.561C45.354,10,46,10.646,46,11.441V43z M3.109,7l3.236-6
		h38.361l1.052,2H8v1h38.283l1.576,3H3.109z"/>
</g>
<g id="图层_6" display="none">
	<path display="inline" d="M38.348,0H6.129C3.621,0,2,1.511,2,3.849v41.303C2,47.493,3.659,50,6.129,50h37.742
		C46.341,50,48,47.493,48,45.15V7.758L38.348,0z M45,45.15C45,46.05,44.42,47,43.871,47H6.129C5.58,47,5,46.05,5,45.15V3.849
		C5,3.471,5,3,6.129,3H37v6l8-0.004V45.15z"/>
	<g display="inline">
		<polygon points="13.059,17.581 10.232,14.22 11.762,12.933 13.109,14.534 16.308,10.98 17.794,12.318 		"/>
	</g>
	<g display="inline">
		<rect x="20" y="37" width="19" height="1"/>
	</g>
	<g display="inline">
		<rect x="20" y="25" width="19" height="1"/>
	</g>
	<g display="inline">
		<rect x="20" y="14" width="19" height="1"/>
	</g>
	<g display="inline">
		<path d="M16,41H9v-7h7V41z M10,40h5v-5h-5V40z"/>
	</g>
	<polygon display="inline" points="15,14.996 15,17 10,17 10,12 15.334,12 15.834,11 9,11 9,18 16,18 16,14.44 	"/>
	<g display="inline">
		<path d="M16,29H9v-7h7V29z M10,28h5v-5h-5V28z"/>
	</g>
</g>
<g id="图层_7" display="none">
	<g display="inline">
		<path d="M45.673,47H4.327C1.941,47,0,45.059,0,42.673V8.327C0,5.941,1.941,4,4.327,4h41.346C48.059,4,50,5.941,50,8.327v34.346
			C50,45.059,48.059,47,45.673,47z M4.327,7C3.595,7,3,7.595,3,8.327v34.346C3,43.404,3.595,44,4.327,44h41.346
			C46.404,44,47,43.404,47,42.673V8.327C47,7.595,46.404,7,45.673,7H4.327z"/>
	</g>
	<g display="inline">
		<path d="M30.008,45.146c-0.334-5.854-5.19-10.438-11.056-10.438c-5.905,0-10.792,4.583-11.126,10.438L6.827,45.09
			c0.364-6.38,5.689-11.378,12.125-11.378c6.396,0,11.69,4.998,12.054,11.378L30.008,45.146z"/>
	</g>
	<g display="inline">
		<path d="M18.679,31.5c-2.986,0-5.416-2.43-5.416-5.415c0-2.986,2.429-5.416,5.416-5.416c2.987,0,5.416,2.429,5.416,5.416
			C24.095,29.072,21.666,31.5,18.679,31.5z M18.679,21.669c-2.435,0-4.416,1.981-4.416,4.416c0,2.435,1.981,4.415,4.416,4.415
			c2.435,0,4.416-1.98,4.416-4.415C23.095,23.65,21.114,21.669,18.679,21.669z"/>
	</g>
	<g display="inline">
		<rect x="29" y="14" width="14" height="1"/>
	</g>
	<g display="inline">
		<rect x="35" y="18" width="8" height="1"/>
	</g>
	<g display="inline">
		<rect x="35" y="22" width="8" height="1"/>
	</g>
</g>
<g id="图层_8" display="none">
	<path display="inline" d="M40.145,0h-0.25H9.954H9.855C4.421,0,0,4.421,0,9.855V10.5V12v28.145C0,45.579,4.421,50,9.855,50h30.29
		C45.579,50,50,45.579,50,40.145V12v-1.5V9.855C50,4.421,45.579,0,40.145,0z M42,12h5v7h-5V12z M42,20h5v6h-5V20z M42,27h5v6h-5V27z
		 M47,34v6h-5v-6H47z M34,12h7v7h-7V12z M34,27h7v6h-7V27z M41,34v6h-7v-6H41z M26,12h7v7h-7V12z M26,20h7v6h-7V20z M33,34v6h-7v-6
		H33z M18,12h7v7h-7V12z M18,20h7v6h-7V20z M18,27h7v6h-7V27z M10,12h7v7h-7V12z M10,27h7v6h-7V27z M17,34v6h-7v-6H17z M3,12h6v7H3
		V12z M3,20h6v6H3V20z M3,27h6v6H3V27z M9,34v6H3v-6H9z M3.06,41H9v5.939C5.904,46.553,3.448,44.096,3.06,41z M10,47v-6h7v6H10z
		 M18,47v-6h7v6H18z M26,47v-6h7v6H26z M40.145,47H34v-6h7v5.939C40.719,46.977,40.436,47,40.145,47z M42,46.738V41h4.928
		C46.581,43.752,44.613,46.001,42,46.738z"/>
</g>
<g id="图层_9" display="none">
	<g display="inline">
		<path d="M42.693,50H7.307C4.932,50,3,48.068,3,45.693V4.306C3,1.932,4.932,0,7.307,0h35.386C45.068,0,47,1.932,47,4.306v41.389
			C47,48.068,45.068,50,42.693,50z M7.307,3C6.586,3,6,3.586,6,4.306v41.389C6,46.414,6.586,47,7.307,47h35.386
			C43.414,47,44,46.414,44,45.693V4.306C44,3.586,43.414,3,42.693,3H7.307z"/>
	</g>
	<g display="inline">
		<rect x="30" y="12" width="9" height="1"/>
	</g>
	<g display="inline">
		<rect x="34" y="8" width="1" height="9"/>
	</g>
</g>
<line display="none" fill="none" x1="-7" y1="25" x2="79" y2="25"/>
<line display="none" fill="none" x1="25" y1="-5" x2="25" y2="64"/>
</svg>
