<svg style="position: absolute; width: 0; height: 0; overflow: hidden;" version="1.1" xmlns="http://www.w3.org/2000/svg" xmlns:xlink="http://www.w3.org/1999/xlink">
<defs>
<symbol id="icon-mobile_index_inf" viewBox="0 0 32 32">
<title>mobile_index_inf</title>
<path fill="#fff" style="fill: var(--color1, #fff)" d="M30.4 27.99c0 0.623-0.507 1.13-1.13 1.13h-26.54c-0.623 0-1.13-0.507-1.13-1.13v-19.5c0-0.623 0.507-1.13 1.13-1.13h10.076c0.25 1.037 1.885 1.514 3.416 1.514s3.166-0.477 3.416-1.514h9.634c0.623 0 1.13 0.507 1.13 1.13l-0.001 19.5z"></path>
<path fill="#ffd4d4" style="fill: var(--color2, #ffd4d4)" d="M19.092 29.18c-0.217-3.807-3.371-6.828-7.232-6.828s-7.059 3.021-7.276 6.828z"></path>
<path fill="#ff4747" style="fill: var(--color3, #ff4747)" d="M18.453 29.215c-0.2-3.49-3.095-6.224-6.593-6.224-3.523 0-6.438 2.733-6.637 6.224l-1.278-0.072c0.237-4.167 3.715-7.431 7.916-7.431 4.176 0 7.634 3.265 7.871 7.431l-1.277 0.072z"></path>
<path fill="#ffd4d4" style="fill: var(--color2, #ffd4d4)" d="M14.766 17.267c0 1.699-1.377 3.076-3.076 3.076s-3.076-1.377-3.076-3.076c0-1.699 1.377-3.076 3.076-3.076s3.076 1.377 3.076 3.076z"></path>
<path fill="#ff4747" style="fill: var(--color3, #ff4747)" d="M11.69 20.982c-2.049 0-3.716-1.667-3.716-3.716s1.667-3.718 3.716-3.718 3.717 1.667 3.717 3.718c-0.001 2.049-1.668 3.716-3.717 3.716zM11.69 14.829c-1.343 0-2.436 1.093-2.436 2.437s1.093 2.436 2.436 2.436c1.344 0 2.437-1.092 2.437-2.436s-1.094-2.437-2.437-2.437z"></path>
<path fill="#ff4747" style="fill: var(--color3, #ff4747)" d="M27.2 13.76h-8.32c-0.354 0-0.64-0.287-0.64-0.64s0.286-0.64 0.64-0.64h8.32c0.354 0 0.64 0.287 0.64 0.64s-0.286 0.64-0.64 0.64z"></path>
<path fill="#ff4747" style="fill: var(--color3, #ff4747)" d="M27.2 16.32h-3.84c-0.354 0-0.64-0.287-0.64-0.64s0.286-0.64 0.64-0.64h3.84c0.354 0 0.64 0.287 0.64 0.64s-0.286 0.64-0.64 0.64z"></path>
<path fill="#ff4747" style="fill: var(--color3, #ff4747)" d="M27.2 18.88h-3.84c-0.354 0-0.64-0.286-0.64-0.64s0.286-0.64 0.64-0.64h3.84c0.354 0 0.64 0.286 0.64 0.64s-0.286 0.64-0.64 0.64z"></path>
<path fill="#ffd4d4" style="fill: var(--color2, #ffd4d4)" d="M18.24 6.793c0 0.666-0.541 1.207-1.208 1.207h-1.427c-0.666 0-1.207-0.541-1.207-1.207v-2.706c0-0.666 0.541-1.207 1.207-1.207h1.427c0.666 0 1.208 0.541 1.208 1.207v2.706z"></path>
<path fill="#f00" style="fill: var(--color4, #f00)" d="M15.68 4.16h1.28v1.28h-1.28v-1.28z"></path>
<path fill="#f00" style="fill: var(--color4, #f00)" d="M29.27 6.080h-10.39v-1.993c0-1.018-0.829-1.847-1.848-1.847h-1.427c-1.018 0-1.847 0.828-1.847 1.847v1.993h-11.029c-1.329 0-2.41 1.081-2.41 2.41v19.501c0 1.329 1.081 2.41 2.41 2.41h26.541c1.329 0 2.41-1.080 2.41-2.41v-19.501c-0.001-1.329-1.080-2.41-2.411-2.41zM15.040 4.087c0-0.312 0.254-0.567 0.567-0.567h1.427c0.312 0 0.567 0.254 0.567 0.567v1.993h-0.011v0.657c0.004 0.001 0.007 0.002 0.011 0.003v0.053c0 0.312-0.254 0.567-0.567 0.567h-1.427c-0.312 0-0.567-0.254-0.567-0.567v-2.706zM30.4 27.99c0 0.623-0.507 1.13-1.13 1.13h-26.54c-0.623 0-1.13-0.507-1.13-1.13v-19.5c0-0.623 0.507-1.13 1.13-1.13h10.076c0.25 1.037 1.885 1.514 3.416 1.514s3.166-0.477 3.416-1.514h9.634c0.623 0 1.13 0.507 1.13 1.13l-0.001 19.5z"></path>
</symbol>
<symbol id="icon-mobile_index_cal_view" viewBox="0 0 32 32">
<title>mobile_index_cal_view</title>
<path fill="#fff" style="fill: var(--color1, #fff)" d="M30.401 29.28c0 0.636-0.518 1.154-1.153 1.154h-26.496c-0.636 0-1.153-0.518-1.153-1.154v-21.247h28.801v21.247z"></path>
<path fill="#ff5757" style="fill: var(--color5, #ff5757)" d="M30.4 7.36v-4.383c0-0.99 0.269-1.377-0.721-1.377h-26.894c-0.99 0-2.465 0.387-2.465 1.377v4.383h30.080z"></path>
<path fill="#fff" style="fill: var(--color1, #fff)" d="M8 3.777c0 0.565-0.458 1.023-1.023 1.023h-0.515c-0.565 0-1.023-0.458-1.023-1.023v-1.795c0-0.565 0.458-1.023 1.023-1.023h0.515c0.565 0 1.023 0.458 1.023 1.023v1.795z"></path>
<path fill="#fff" style="fill: var(--color1, #fff)" d="M26.56 3.777c0 0.565-0.458 1.023-1.024 1.023h-0.514c-0.565 0-1.023-0.458-1.023-1.023v-1.795c0-0.565 0.458-1.023 1.023-1.023h0.514c0.566 0 1.024 0.458 1.024 1.023v1.795z"></path>
<path fill="#f00" style="fill: var(--color4, #f00)" d="M30.783 1.521c-0.42-0.345-0.95-0.561-1.534-0.561h-2.41c-0.305-0.387-0.771-0.64-1.301-0.64h-0.513c-0.529 0-0.996 0.253-1.3 0.64h-15.446c-0.305-0.387-0.772-0.64-1.301-0.64h-0.515c-0.529 0-0.996 0.253-1.301 0.64h-2.409c-0.584 0-1.114 0.216-1.533 0.561-0.541 0.337-0.899 0.824-0.899 1.457v26.269c0 1.343 1.091 2.434 2.433 2.434h26.496c1.341 0 2.433-1.091 2.433-2.434v-26.269c0-0.632-0.359-1.119-0.899-1.457zM24.641 2.24v-0.257c0-0.211 0.173-0.383 0.383-0.383h0.515c0.211 0 0.383 0.172 0.383 0.383v1.795c0 0.211-0.172 0.383-0.383 0.383h-0.515c-0.21 0-0.383-0.172-0.383-0.383v-1.537zM6.080 2.24v-0.257c0-0.211 0.172-0.383 0.383-0.383h0.515c0.211 0 0.383 0.172 0.383 0.383v1.795c0 0.211-0.172 0.383-0.383 0.383h-0.515c-0.211 0-0.383-0.172-0.383-0.383v-1.537zM30.401 29.246c0 0.636-0.518 1.154-1.153 1.154h-26.496c-0.636 0-1.153-0.518-1.153-1.154v-21.246h28.801v21.246zM30.401 6.72h-28.801v-3.327c0-0.329 0.14-0.625 0.362-0.835 0.362-0.194 0.939-0.319 1.464-0.319h1.375v1.537c0 0.916 0.746 1.663 1.663 1.663h0.515c0.917 0 1.663-0.746 1.663-1.663v-1.537h14.721v1.537c0 0.917 0.746 1.663 1.663 1.663h0.515c0.917 0 1.663-0.746 1.663-1.663v-1.537h1.374c0.525 0 1.102 0.125 1.464 0.319 0.222 0.211 0.361 0.506 0.361 0.835v3.327z"></path>
<path fill="#f00" style="fill: var(--color4, #f00)" d="M23.834 24.332l-3.703-3.071c-0.109-0.109-0.496-0.465-0.941-0.465-0.124 0-0.237 0.036-0.342 0.089 0.838-0.95 1.35-2.193 1.35-3.556 0-2.971-2.417-5.388-5.388-5.388s-5.387 2.417-5.387 5.388 2.417 5.388 5.387 5.388c1.428 0 2.724-0.563 3.69-1.473-0.040 0.093-0.062 0.194-0.062 0.3-0.001 0.461 0.382 0.868 0.417 0.9l3.135 3.809c0.23 0.23 0.536 0.358 0.863 0.358 0.324 0 0.628-0.125 0.859-0.355l0.163-0.163c0.23-0.229 0.358-0.535 0.359-0.86s-0.125-0.63-0.399-0.902zM14.81 21.437c-2.265 0-4.107-1.843-4.107-4.108s1.843-4.108 4.107-4.108c2.266 0 4.108 1.843 4.108 4.108s-1.842 4.108-4.108 4.108z"></path>
</symbol>
<symbol id="icon-mobile_index_cal_mng" viewBox="0 0 32 32">
<title>mobile_index_cal_mng</title>
<path fill="#fff" style="fill: var(--color1, #fff)" d="M30.401 29.28c0 0.636-0.517 1.154-1.153 1.154h-26.496c-0.636 0-1.153-0.518-1.153-1.154v-21.247h28.801v21.247z"></path>
<path fill="#ffd4d4" style="fill: var(--color2, #ffd4d4)" d="M23.492 18.418c-0.153-0.687-0.854-1.234-1.558-1.213 0 0-0.463 0.013-0.908-0.756-0.444-0.77-0.204-1.162-0.204-1.162 0.367-0.6 0.217-1.448-0.335-1.885l-1.379-0.787c-0.653-0.264-1.461 0.025-1.798 0.644 0 0-0.22 0.404-1.109 0.404s-1.108-0.404-1.108-0.404c-0.336-0.618-1.145-0.908-1.797-0.644l-1.38 0.787c-0.552 0.436-0.703 1.285-0.335 1.885 0 0 0.241 0.393-0.204 1.162s-0.908 0.756-0.908 0.756c-0.704-0.019-1.405 0.527-1.558 1.213 0 0-0.022 0.097-0.022 0.813s0.022 0.814 0.022 0.814c0.153 0.687 0.854 1.234 1.558 1.213 0 0 0.463-0.013 0.908 0.759 0.444 0.769 0.204 1.162 0.204 1.162-0.368 0.6-0.217 1.448 0.335 1.885l1.38 0.787c0.653 0.265 1.461-0.025 1.797-0.644 0 0 0.22-0.404 1.108-0.404s1.108 0.405 1.108 0.405c0.336 0.618 1.145 0.908 1.798 0.643l1.379-0.787c0.552-0.437 0.704-1.285 0.336-1.885 0 0-0.241-0.392 0.203-1.162 0.445-0.771 0.908-0.758 0.908-0.758 0.704 0.019 1.405-0.527 1.558-1.214 0 0 0.021-0.096 0.021-0.813s-0.021-0.814-0.021-0.814zM16.010 22.952c-1.978 0-3.586-1.609-3.586-3.587 0-1.976 1.608-3.582 3.586-3.582s3.586 1.606 3.586 3.582c-0.001 1.978-1.609 3.587-3.586 3.587z"></path>
<path fill="#ff4747" style="fill: var(--color3, #ff4747)" d="M18.595 26.59c-0.746 0-1.452-0.399-1.818-1.023-0.040-0.030-0.196-0.124-0.576-0.124s-0.536 0.093-0.577 0.124c-0.493 0.842-1.658 1.246-2.57 0.877l-0.076-0.037-1.46-0.84c-0.797-0.63-1.016-1.791-0.515-2.669 0.006-0.050 0.009-0.232-0.181-0.561-0.197-0.34-0.36-0.424-0.401-0.44-1.017-0.029-1.925-0.771-2.135-1.713-0.012-0.054-0.037-0.166-0.037-0.954 0-0.787 0.025-0.898 0.037-0.952 0.214-0.962 1.156-1.715 2.145-1.716 0.010-0.004 0.182-0.074 0.392-0.436 0.189-0.328 0.187-0.509 0.181-0.56-0.502-0.878-0.282-2.039 0.515-2.669l0.080-0.054 1.457-0.824c0.911-0.369 2.076 0.035 2.57 0.878 0.040 0.030 0.197 0.124 0.577 0.124s0.536-0.093 0.577-0.124c0.493-0.841 1.656-1.248 2.57-0.877l0.076 0.037 1.459 0.84c0.797 0.63 1.017 1.791 0.516 2.669-0.006 0.051-0.009 0.232 0.181 0.561 0.196 0.338 0.36 0.42 0.401 0.437 1.018 0.029 1.925 0.771 2.135 1.713 0.012 0.052 0.038 0.165 0.038 0.952s-0.024 0.898-0.036 0.952c-0.215 0.963-1.157 1.716-2.146 1.717-0.010 0.004-0.182 0.075-0.392 0.438-0.189 0.328-0.186 0.51-0.18 0.56 0.501 0.879 0.28 2.040-0.516 2.669l-0.080 0.054-1.455 0.823c-0.238 0.096-0.492 0.145-0.754 0.145zM16.201 24.164c1.208 0 1.604 0.616 1.671 0.739 0.17 0.312 0.624 0.486 0.961 0.368l1.287-0.733c0.273-0.244 0.348-0.711 0.157-1.024-0.073-0.119-0.409-0.769 0.195-1.816 0.579-1.001 1.265-1.079 1.461-1.079h0.001c0.431 0 0.849-0.333 0.934-0.714-0.001 0-0.001 0-0.001 0-0.003 0 0.006-0.168 0.006-0.675 0-0.577-0.014-0.717-0.015-0.723-0.076-0.331-0.494-0.664-0.887-0.664-0.001 0-0.002 0-0.003 0-0.237 0-0.92-0.080-1.497-1.074-0.604-1.048-0.269-1.698-0.196-1.818 0.191-0.312 0.117-0.779-0.156-1.023l-1.287-0.733c-0.34-0.118-0.792 0.057-0.961 0.369-0.067 0.124-0.463 0.739-1.672 0.739s-1.604-0.616-1.671-0.739c-0.169-0.312-0.621-0.485-0.961-0.369l-1.288 0.733c-0.273 0.244-0.347 0.711-0.156 1.023 0.074 0.12 0.409 0.771-0.196 1.816-0.577 0.998-1.265 1.076-1.461 1.076 0 0-0.001 0-0.001 0-0.428 0-0.844 0.329-0.932 0.706 0-0.001 0-0.001 0-0.001 0.003 0-0.008 0.168-0.008 0.682 0 0.58 0.014 0.72 0.015 0.726 0.076 0.33 0.494 0.663 0.887 0.663 0.23-0.012 0.922 0.076 1.5 1.078 0.604 1.046 0.269 1.697 0.195 1.817-0.191 0.312-0.117 0.779 0.156 1.023l1.288 0.733c0.342 0.117 0.792-0.057 0.961-0.369 0.068-0.122 0.464-0.738 1.672-0.738zM16.010 23.592c-2.33 0-4.226-1.896-4.226-4.227 0-2.328 1.896-4.222 4.226-4.222s4.226 1.894 4.226 4.222c-0.001 2.331-1.896 4.227-4.226 4.227zM16.010 16.424c-1.624 0-2.946 1.32-2.946 2.942 0 1.624 1.322 2.947 2.946 2.947s2.946-1.322 2.946-2.947c-0.001-1.622-1.322-2.942-2.946-2.942z"></path>
<path fill="#ff5757" style="fill: var(--color5, #ff5757)" d="M30.4 7.36v-4.383c0-0.99 0.269-1.377-0.721-1.377h-26.894c-0.99 0-2.465 0.387-2.465 1.377v4.383h30.080z"></path>
<path fill="#fff" style="fill: var(--color1, #fff)" d="M8 3.777c0 0.565-0.458 1.023-1.023 1.023h-0.515c-0.565 0-1.023-0.458-1.023-1.023v-1.795c0-0.565 0.458-1.023 1.023-1.023h0.515c0.565 0 1.023 0.458 1.023 1.023v1.795z"></path>
<path fill="#fff" style="fill: var(--color1, #fff)" d="M26.56 3.777c0 0.565-0.458 1.023-1.023 1.023h-0.514c-0.565 0-1.023-0.458-1.023-1.023v-1.795c0-0.565 0.458-1.023 1.023-1.023h0.514c0.565 0 1.023 0.458 1.023 1.023v1.795z"></path>
<path fill="#f00" style="fill: var(--color4, #f00)" d="M30.783 1.521c-0.42-0.345-0.95-0.561-1.534-0.561h-2.41c-0.305-0.387-0.772-0.64-1.301-0.64h-0.514c-0.529 0-0.996 0.253-1.3 0.64h-15.445c-0.305-0.387-0.772-0.64-1.301-0.64h-0.515c-0.529 0-0.996 0.253-1.301 0.64h-2.409c-0.584 0-1.114 0.216-1.533 0.561-0.541 0.337-0.899 0.824-0.899 1.457v26.269c0 1.342 1.091 2.433 2.433 2.433h26.496c1.341 0 2.433-1.091 2.433-2.433v-26.269c0-0.632-0.359-1.119-0.899-1.457zM24.641 2.24v-0.257c0-0.211 0.172-0.383 0.383-0.383h0.515c0.211 0 0.383 0.172 0.383 0.383v1.795c0 0.211-0.172 0.383-0.383 0.383h-0.515c-0.211 0-0.383-0.172-0.383-0.383v-1.537zM6.080 2.24v-0.257c0-0.211 0.172-0.383 0.383-0.383h0.515c0.211 0 0.383 0.172 0.383 0.383v1.795c0 0.211-0.172 0.383-0.383 0.383h-0.515c-0.211 0-0.383-0.172-0.383-0.383v-1.537zM30.401 29.247c0 0.636-0.517 1.153-1.153 1.153h-26.496c-0.636 0-1.153-0.518-1.153-1.153v-21.247h28.801v21.247zM30.401 6.72h-28.801v-3.327c0-0.329 0.14-0.625 0.362-0.835 0.362-0.194 0.939-0.319 1.464-0.319h1.375v1.537c0 0.916 0.746 1.663 1.663 1.663h0.515c0.917 0 1.663-0.746 1.663-1.663v-1.537h14.721v1.537c0 0.917 0.746 1.663 1.663 1.663h0.515c0.917 0 1.663-0.746 1.663-1.663v-1.537h1.374c0.525 0 1.102 0.125 1.464 0.319 0.222 0.211 0.362 0.506 0.362 0.835v3.327z"></path>
</symbol>
<symbol id="icon-mobile_index_cal" viewBox="0 0 32 32">
<title>mobile_index_cal</title>
<path fill="#ff5757" style="fill: var(--color5, #ff5757)" d="M31.040 6.72v-3.84c0-0.979 0.067-0.64-0.914-0.64h-26.593c-0.979 0-2.573-0.339-2.573 0.64v3.84h30.080z"></path>
<path fill="#fff" style="fill: var(--color1, #fff)" d="M8 3.788c0 0.559-0.453 1.012-1.012 1.012h-0.536c-0.559 0-1.012-0.453-1.012-1.012v-1.816c0-0.559 0.453-1.012 1.012-1.012h0.536c0.559 0 1.012 0.453 1.012 1.012v1.816z"></path>
<path fill="#fff" style="fill: var(--color1, #fff)" d="M27.2 3.788c0 0.559-0.453 1.012-1.012 1.012h-0.536c-0.559 0-1.012-0.453-1.012-1.012v-1.816c0-0.559 0.453-1.012 1.012-1.012h0.536c0.559 0 1.012 0.453 1.012 1.012v1.816z"></path>
<path fill="#fff" style="fill: var(--color1, #fff)" d="M29.267 30.4h-26.898c-0.635 0-0.768-0.624-0.768-1.147v-21.893h28.8v21.893c0 0.632-0.508 1.147-1.134 1.147z"></path>
<path fill="#f00" style="fill: var(--color4, #f00)" d="M29.267 1.6h-1.472c-0.17-0.732-0.824-1.28-1.606-1.28h-0.536c-0.783 0-1.436 0.548-1.606 1.28h-15.452c-0.17-0.732-0.824-1.28-1.606-1.28h-0.536c-0.782 0-1.436 0.548-1.606 1.28h-2.478c-1.34 0-2.048 0.697-2.048 2.015v25.638c0 1.475 0.804 2.427 2.048 2.427h26.898c1.331 0 2.413-1.089 2.413-2.427v-25.638c0.001-1.243-0.924-2.015-2.413-2.015zM25.28 2.88v-0.908c0-0.205 0.168-0.372 0.372-0.372h0.536c0.204 0 0.372 0.167 0.372 0.372v1.816c0 0.205-0.168 0.372-0.372 0.372h-0.536c-0.204 0-0.372-0.167-0.372-0.372v-0.908zM6.080 2.88v-0.908c0-0.205 0.167-0.372 0.372-0.372h0.536c0.205 0 0.372 0.167 0.372 0.372v1.816c0 0.205-0.167 0.372-0.372 0.372h-0.536c-0.205 0-0.372-0.167-0.372-0.372v-0.908zM1.6 3.615c0-0.579 0.096-0.735 0.768-0.735h2.432v0.908c0 0.911 0.741 1.652 1.652 1.652h0.536c0.911 0 1.652-0.741 1.652-1.652v-0.908h15.36v0.908c0 0.911 0.741 1.652 1.652 1.652h0.536c0.911 0 1.652-0.741 1.652-1.652v-0.908h1.427c1.133 0 1.133 0.554 1.133 0.735v2.527h-28.8v-2.527zM29.267 30.4h-26.899c-0.635 0-0.768-0.624-0.768-1.147v-21.893h28.8v21.893c0 0.632-0.508 1.147-1.133 1.147z"></path>
<path fill="#ffd4d4" style="fill: var(--color2, #ffd4d4)" d="M7.36 12.874c0 0.49-0.397 0.886-0.887 0.886h-0.786c-0.49 0-0.887-0.397-0.887-0.886v-0.787c0-0.49 0.397-0.886 0.887-0.886h0.787c0.49 0 0.887 0.397 0.887 0.886l-0.001 0.787z"></path>
<path fill="#ff4747" style="fill: var(--color3, #ff4747)" d="M6.473 14.4h-0.786c-0.842 0-1.527-0.685-1.527-1.526v-0.787c0-0.842 0.685-1.526 1.527-1.526h0.787c0.842 0 1.527 0.685 1.527 1.526v0.787c-0.001 0.842-0.685 1.526-1.528 1.526zM5.687 11.84c-0.136 0-0.247 0.111-0.247 0.246v0.787c0 0.136 0.111 0.246 0.247 0.246h0.787c0.136 0 0.247-0.111 0.247-0.246v-0.787c0-0.136-0.111-0.246-0.247-0.246h-0.787z"></path>
<path fill="#ffd4d4" style="fill: var(--color2, #ffd4d4)" d="M7.36 19.272c0 0.49-0.397 0.888-0.887 0.888h-0.786c-0.49 0-0.887-0.397-0.887-0.888v-0.785c0-0.491 0.397-0.888 0.887-0.888h0.787c0.49 0 0.887 0.397 0.887 0.888l-0.001 0.785z"></path>
<path fill="#ff4747" style="fill: var(--color3, #ff4747)" d="M6.473 20.8h-0.786c-0.842 0-1.527-0.685-1.527-1.528v-0.785c0-0.842 0.685-1.528 1.527-1.528h0.787c0.842 0 1.527 0.684 1.527 1.528v0.785c-0.001 0.843-0.685 1.528-1.528 1.528zM5.687 18.24c-0.136 0-0.247 0.111-0.247 0.248v0.785c0 0.137 0.111 0.248 0.247 0.248h0.787c0.136 0 0.247-0.111 0.247-0.248v-0.785c0-0.136-0.111-0.248-0.247-0.248h-0.787z"></path>
<path fill="#ffd4d4" style="fill: var(--color2, #ffd4d4)" d="M13.76 12.874c0 0.49-0.397 0.886-0.887 0.886h-0.787c-0.49 0-0.887-0.397-0.887-0.886v-0.787c0-0.49 0.397-0.886 0.887-0.886h0.787c0.49 0 0.887 0.397 0.887 0.886v0.787z"></path>
<path fill="#ff4747" style="fill: var(--color3, #ff4747)" d="M12.873 14.4h-0.787c-0.842 0-1.527-0.685-1.527-1.526v-0.787c0-0.842 0.685-1.526 1.527-1.526h0.787c0.842 0 1.527 0.685 1.527 1.526v0.787c0 0.842-0.685 1.526-1.527 1.526zM12.087 11.84c-0.136 0-0.247 0.111-0.247 0.246v0.787c0 0.136 0.111 0.246 0.247 0.246h0.787c0.136 0 0.247-0.111 0.247-0.246v-0.787c0-0.136-0.111-0.246-0.247-0.246h-0.787z"></path>
<path fill="#ffd4d4" style="fill: var(--color2, #ffd4d4)" d="M13.76 19.272c0 0.49-0.397 0.888-0.887 0.888h-0.787c-0.49 0-0.887-0.397-0.887-0.888v-0.785c0-0.491 0.397-0.888 0.887-0.888h0.787c0.49 0 0.887 0.397 0.887 0.888v0.785z"></path>
<path fill="#ff4747" style="fill: var(--color3, #ff4747)" d="M12.873 20.8h-0.787c-0.842 0-1.527-0.685-1.527-1.528v-0.785c0-0.842 0.685-1.528 1.527-1.528h0.787c0.842 0 1.527 0.684 1.527 1.528v0.785c0 0.843-0.685 1.528-1.527 1.528zM12.087 18.24c-0.136 0-0.247 0.111-0.247 0.248v0.785c0 0.137 0.111 0.248 0.247 0.248h0.787c0.136 0 0.247-0.111 0.247-0.248v-0.785c0-0.136-0.111-0.248-0.247-0.248h-0.787z"></path>
<path fill="#ffd4d4" style="fill: var(--color2, #ffd4d4)" d="M20.8 12.874c0 0.49-0.397 0.886-0.888 0.886h-0.787c-0.49 0-0.887-0.397-0.887-0.886v-0.787c0-0.49 0.397-0.886 0.887-0.886h0.787c0.49 0 0.888 0.397 0.888 0.886v0.787z"></path>
<path fill="#ff4747" style="fill: var(--color3, #ff4747)" d="M19.912 14.4h-0.787c-0.841 0-1.527-0.685-1.527-1.526v-0.787c0-0.842 0.684-1.526 1.527-1.526h0.787c0.842 0 1.528 0.685 1.528 1.526v0.787c0 0.842-0.685 1.526-1.528 1.526zM19.128 11.84c-0.137 0-0.248 0.111-0.248 0.246v0.787c0 0.136 0.111 0.246 0.248 0.246h0.787c0.136 0 0.247-0.111 0.247-0.246v-0.787c0-0.136-0.111-0.246-0.247-0.246h-0.787z"></path>
<path fill="#ffd4d4" style="fill: var(--color2, #ffd4d4)" d="M20.8 19.272c0 0.49-0.397 0.888-0.888 0.888h-0.787c-0.49 0-0.887-0.397-0.887-0.888v-0.785c0-0.491 0.397-0.888 0.887-0.888h0.787c0.49 0 0.888 0.397 0.888 0.888v0.785z"></path>
<path fill="#ff4747" style="fill: var(--color3, #ff4747)" d="M19.912 20.8h-0.787c-0.841 0-1.527-0.685-1.527-1.528v-0.785c0-0.842 0.684-1.528 1.527-1.528h0.787c0.842 0 1.528 0.684 1.528 1.528v0.785c0 0.843-0.685 1.528-1.528 1.528zM19.128 18.24c-0.137 0-0.248 0.111-0.248 0.248v0.785c0 0.137 0.111 0.248 0.248 0.248h0.787c0.136 0 0.247-0.111 0.247-0.248v-0.785c0-0.136-0.111-0.248-0.247-0.248h-0.787z"></path>
<path fill="#ffd4d4" style="fill: var(--color2, #ffd4d4)" d="M27.2 12.874c0 0.49-0.397 0.886-0.888 0.886h-0.787c-0.49 0-0.887-0.397-0.887-0.886v-0.787c0-0.49 0.397-0.886 0.887-0.886h0.787c0.49 0 0.888 0.397 0.888 0.886v0.787z"></path>
<path fill="#ff4747" style="fill: var(--color3, #ff4747)" d="M26.312 14.4h-0.787c-0.841 0-1.527-0.685-1.527-1.526v-0.787c0-0.842 0.684-1.526 1.527-1.526h0.787c0.842 0 1.528 0.685 1.528 1.526v0.787c0 0.842-0.685 1.526-1.528 1.526zM25.528 11.84c-0.137 0-0.248 0.111-0.248 0.246v0.787c0 0.136 0.111 0.246 0.248 0.246h0.787c0.136 0 0.247-0.111 0.247-0.246v-0.787c0-0.136-0.111-0.246-0.247-0.246h-0.787z"></path>
<path fill="#ffd4d4" style="fill: var(--color2, #ffd4d4)" d="M27.2 19.272c0 0.49-0.397 0.888-0.888 0.888h-0.787c-0.49 0-0.887-0.397-0.887-0.888v-0.785c0-0.491 0.397-0.888 0.887-0.888h0.787c0.49 0 0.888 0.397 0.888 0.888v0.785z"></path>
<path fill="#ff4747" style="fill: var(--color3, #ff4747)" d="M26.312 20.8h-0.787c-0.841 0-1.527-0.685-1.527-1.528v-0.785c0-0.842 0.684-1.528 1.527-1.528h0.787c0.842 0 1.528 0.684 1.528 1.528v0.785c0 0.843-0.685 1.528-1.528 1.528zM25.528 18.24c-0.137 0-0.248 0.111-0.248 0.248v0.785c0 0.137 0.111 0.248 0.248 0.248h0.787c0.136 0 0.247-0.111 0.247-0.248v-0.785c0-0.136-0.111-0.248-0.247-0.248h-0.787z"></path>
</symbol>
<symbol id="icon-mobile_index_ass_tlr" viewBox="0 0 32 32">
<title>mobile_index_ass_tlr</title>
<path fill="#fff" style="fill: var(--color1, #fff)" d="M31.040 29.296c0 0.963-0.781 1.744-1.744 1.744h-26.592c-0.963 0-1.744-0.781-1.744-1.744v-26.592c0-0.963 0.781-1.744 1.744-1.744h26.592c0.964 0 1.745 0.781 1.745 1.744l-0.001 26.592z"></path>
<path fill="#ff4747" style="fill: var(--color3, #ff4747)" d="M16.64 23.144c-1.214 0-2.24-0.996-2.24-2.174v-7.85h-1.633c-1.28 0-2.174-0.789-2.174-1.92s0.894-1.92 2.174-1.92h7.801c1.28 0 2.174 0.79 2.174 1.92s-0.894 1.92-2.174 1.92h-1.688v7.85c0 1.178-1.026 2.174-2.24 2.174zM12.767 10.56c-0.333 0-0.894 0.083-0.894 0.64s0.56 0.64 0.894 0.64h2.913v9.13c0 0.476 0.449 0.894 0.96 0.894s0.96-0.418 0.96-0.894v-9.13h2.969c0.333 0 0.894-0.083 0.894-0.64s-0.561-0.64-0.894-0.64h-7.802z"></path>
<path fill="#ff5757" style="fill: var(--color5, #ff5757)" d="M5.44 0.96h-2.518c-0.963 0-1.962 0.563-1.962 1.526v26.592c0 0.964 0.999 1.962 1.962 1.962h2.518v-30.079z"></path>
<path fill="#ffd4d4" style="fill: var(--color2, #ffd4d4)" d="M27.2 5.631l-1.92-0.979-1.92 0.979v-4.671h3.84z"></path>
<path fill="#f00" style="fill: var(--color4, #f00)" d="M29.296 0.32h-26.592c-0.547 0-1.044 0.192-1.446 0.502-0.551 0.372-0.938 0.936-0.938 1.664v26.81c0 1.315 1.069 2.384 2.384 2.384h26.592c1.315 0 2.385-1.069 2.385-2.384v-26.592c-0.001-1.315-1.070-2.384-2.385-2.384zM26.56 1.6v2.986l-1.28-0.653-1.28 0.653v-2.986h2.56zM2.922 30.4c-0.605 0-1.322-0.716-1.322-1.321v-26.375c0-0.356 0.173-0.671 0.435-0.872 0.25-0.149 0.574-0.232 0.886-0.232h1.878v28.8h-1.878zM30.4 29.296c0 0.609-0.495 1.104-1.104 1.104h-23.216v-28.8h16.64v5.075l2.56-1.306 2.56 1.306v-5.075h1.456c0.609 0 1.104 0.495 1.104 1.104v26.592z"></path>
</symbol>
<symbol id="icon-mobile_index_ass_excel" viewBox="0 0 32 32">
<title>mobile_index_ass_excel</title>
<path fill="#fff" style="fill: var(--color1, #fff)" d="M29.76 22.963c0 0.735-0.403 1.037-1.137 1.037h-25.251c-0.733 0-1.132-0.303-1.132-1.037v-16.834c0-0.734 0.398-1.329 1.132-1.329h25.251c0.734 0 1.137 0.595 1.137 1.329v16.834z"></path>
<path fill="#f00" style="fill: var(--color4, #f00)" d="M28.623 4.16h-25.251c-1.043 0-1.772 0.81-1.772 1.969v16.834c0 1.066 0.646 1.677 1.772 1.677h11.678l-6.521 5.589c-0.268 0.23-0.3 0.634-0.069 0.902 0.127 0.148 0.306 0.224 0.486 0.224 0.147 0 0.296-0.051 0.416-0.154l7.077-6.067 7.080 6.067c0.12 0.103 0.269 0.154 0.416 0.154 0.18 0 0.36-0.076 0.486-0.224 0.23-0.268 0.199-0.673-0.070-0.902l-6.522-5.588h10.792c1.13 0 1.777-0.611 1.777-1.677v-16.834c0.001-1.159-0.73-1.969-1.777-1.969zM29.12 22.963c0 0.273 0 0.397-0.497 0.397h-25.251c-0.492 0-0.492-0.124-0.492-0.397v-16.834c0-0.207 0.048-0.689 0.492-0.689h25.251c0.449 0 0.497 0.481 0.497 0.689v16.834z"></path>
<path fill="#ff6969" style="fill: var(--color6, #ff6969)" d="M12.627 14.152l4.467-3.404c-0.614-1.016-1.485-1.675-2.6-2.183l-1.866 5.587z"></path>
<path fill="#ff6969" style="fill: var(--color6, #ff6969)" d="M11.604 15.068l1.992-5.802c-0.624-0.22-1.293-0.339-1.992-0.339-3.318 0-6.008 2.69-6.008 6.008s2.69 6.008 6.008 6.008c1.137 0 2.199-0.316 3.105-0.864l-3.105-5.012z"></path>
<path fill="#ff6969" style="fill: var(--color6, #ff6969)" d="M12.372 15.068l2.782 4.713c1.49-1.094 2.458-2.857 2.458-4.846 0-1.133-0.312-2.195-0.86-3.098l-4.38 3.231z"></path>
<path fill="#ff7a7a" style="fill: var(--color7, #ff7a7a)" d="M25.28 11.84h-5.76c-0.354 0-0.64-0.287-0.64-0.64s0.286-0.64 0.64-0.64h5.76c0.354 0 0.64 0.287 0.64 0.64s-0.286 0.64-0.64 0.64z"></path>
<path fill="#ff7a7a" style="fill: var(--color7, #ff7a7a)" d="M25.28 14.4h-5.76c-0.354 0-0.64-0.287-0.64-0.64s0.286-0.64 0.64-0.64h5.76c0.354 0 0.64 0.287 0.64 0.64s-0.286 0.64-0.64 0.64z"></path>
<path fill="#ff7a7a" style="fill: var(--color7, #ff7a7a)" d="M25.28 16.96h-5.76c-0.354 0-0.64-0.286-0.64-0.64s0.286-0.64 0.64-0.64h5.76c0.354 0 0.64 0.287 0.64 0.64s-0.286 0.64-0.64 0.64z"></path>
<path fill="#ff7a7a" style="fill: var(--color7, #ff7a7a)" d="M25.28 19.52h-5.76c-0.354 0-0.64-0.286-0.64-0.64s0.286-0.64 0.64-0.64h5.76c0.354 0 0.64 0.286 0.64 0.64s-0.286 0.64-0.64 0.64z"></path>
<path fill="#f00" style="fill: var(--color4, #f00)" d="M18.24 2.88h-3.84c-0.707 0-1.28-0.573-1.28-1.28s0.573-1.28 1.28-1.28h3.84c0.707 0 1.28 0.573 1.28 1.28s-0.573 1.28-1.28 1.28z"></path>
<path fill="#f00" style="fill: var(--color4, #f00)" d="M30.4 6.080h-28.8c-0.707 0-1.28-0.573-1.28-1.28s0.573-1.28 1.28-1.28h28.8c0.707 0 1.28 0.573 1.28 1.28s-0.573 1.28-1.28 1.28z"></path>
</symbol>
<symbol id="icon-mobile_index_ass_chf" viewBox="0 0 32 32">
<title>mobile_index_ass_chf</title>
<path fill="#fff" style="fill: var(--color1, #fff)" d="M30.634 29.108c0 0.963-0.781 1.744-1.744 1.744h-26.592c-0.963 0-1.744-0.781-1.744-1.744v-26.592c0-0.963 0.781-1.744 1.744-1.744h26.592c0.964 0 1.745 0.781 1.745 1.744l-0.001 26.592z"></path>
<path fill="#ff5757" style="fill: var(--color5, #ff5757)" d="M5.44 0.96h-2.518c-0.963 0-1.962 0.563-1.962 1.526v26.592c0 0.964 0.999 1.962 1.962 1.962h2.518v-30.079z"></path>
<path fill="#ffd4d4" style="fill: var(--color2, #ffd4d4)" d="M27.2 5.631l-1.92-0.979-1.92 0.979v-4.671h3.84z"></path>
<path fill="#f00" style="fill: var(--color4, #f00)" d="M29.296 0.32h-26.592c-0.547 0-1.044 0.192-1.446 0.502-0.551 0.372-0.938 0.936-0.938 1.664v26.81c0 1.315 1.069 2.384 2.384 2.384h26.592c1.315 0 2.385-1.069 2.385-2.384v-26.592c-0.001-1.315-1.070-2.384-2.385-2.384zM26.56 1.6v2.986l-1.28-0.653-1.28 0.653v-2.986h2.56zM2.922 30.4c-0.605 0-1.322-0.716-1.322-1.321v-26.375c0-0.356 0.173-0.671 0.435-0.872 0.25-0.149 0.574-0.232 0.886-0.232h1.878v28.8h-1.878zM30.4 29.296c0 0.609-0.495 1.104-1.104 1.104h-23.216v-28.8h16.64v5.075l2.56-1.306 2.56 1.306v-5.075h1.456c0.609 0 1.104 0.495 1.104 1.104v26.592z"></path>
<path fill="#ff4747" style="fill: var(--color3, #ff4747)" d="M18.448 23.164c-1.944 0-3.545-0.653-4.76-1.943-1.18-1.256-1.779-2.884-1.779-4.841 0-2.081 0.66-3.809 1.964-5.134 1.313-1.336 2.98-2.013 4.957-2.013 1.204 0 2.208 0.182 3.071 0.556 1.031 0.449 1.506 1.653 1.057 2.684-0.324 0.746-1.059 1.228-1.872 1.228-0.28 0-0.554-0.057-0.813-0.17-0.228-0.099-0.665-0.218-1.444-0.218-0.865 0-1.515 0.252-2.047 0.792-0.534 0.543-0.793 1.287-0.793 2.275 0 0.896 0.22 1.565 0.67 2.044 0.424 0.451 0.991 0.66 1.788 0.66 0.718 0 1.287-0.108 1.69-0.319 0.292-0.154 0.621-0.235 0.949-0.235 0.76 0 1.453 0.417 1.806 1.090 0.524 0.996 0.141 2.232-0.854 2.756-0.993 0.524-2.202 0.789-3.59 0.789zM18.83 10.513c-1.62 0-2.98 0.548-4.044 1.63-1.059 1.078-1.597 2.504-1.597 4.237 0 1.62 0.481 2.954 1.43 3.964 0.963 1.022 2.251 1.54 3.827 1.54 1.179 0 2.186-0.216 2.995-0.641 0.371-0.195 0.513-0.655 0.318-1.027-0.189-0.36-0.661-0.51-1.027-0.319-0.588 0.31-1.357 0.467-2.285 0.467-1.142 0-2.058-0.358-2.72-1.064-0.685-0.727-1.018-1.683-1.018-2.92 0-1.34 0.38-2.377 1.16-3.172 0.777-0.791 1.745-1.175 2.96-1.175 0.802 0 1.46 0.109 1.955 0.324 0.382 0.166 0.838-0.022 1-0.394 0.167-0.385-0.010-0.833-0.394-1-0.7-0.303-1.537-0.451-2.562-0.451z"></path>
</symbol>
<symbol id="icon-oprplf-iconset-0.svg" viewBox="0 0 32 32">
<title>oprplf-iconset-0.svg</title>
<path fill="#fff" opacity="0.25" style="fill: var(--color1, #fff)" d="M10.546 32c-3.057-0.121-6.086-0.636-8.012-2.507-1.988-1.672-2.446-5.468-2.534-8.945v-9.097c0.088-3.476 0.545-7.272 2.533-8.945 1.926-1.871 4.955-2.386 8.013-2.507h10.908c3.055 0.121 6.086 0.636 8.013 2.507 1.987 1.672 2.445 5.468 2.534 8.945v9.097c-0.089 3.476-0.547 7.27-2.534 8.945-1.926 1.871-4.954 2.386-8.013 2.507h-10.908z"></path>
</symbol>
</defs>
</svg>
